<svg xmlns="http://www.w3.org/2000/svg" viewBox="0 0 48.7 42.56"><defs><style>.cls-1{fill:#8d5b38;}</style></defs><title>logo-dark</title><g id="Слой_2" data-name="Слой 2"><g id="Слой_1-2" data-name="Слой 1"><path d="M30.61,20.8a.78.78,0,0,1,0-.59l2-6.21H22.28a1.59,1.59,0,0,1-1.09.85,1.37,1.37,0,0,1-.29,0H18.3a1,1,0,0,1-.25,0,.72.72,0,0,1-.53-1l2.13-6.63a1.6,1.6,0,0,1,1.44-1h2.6a.76.76,0,0,1,.8.57h3.59L30.2.25A1.2,1.2,0,0,1,30.34,0s-5.41.08-5.4.12C12.56,1.16,1.73,10.23.19,21.27-1.2,31.15,5.29,39.46,15.34,41.86a.81.81,0,0,1,0-.15l2.13-6.63a1.31,1.31,0,0,1,.27-.45,1.62,1.62,0,0,1,1.17-.57h2.6a.76.76,0,0,1,.8.57H25a.87.87,0,0,1,0-.42l2.05-6.38H17.7a1.61,1.61,0,0,1-1.29.73H13.8a.75.75,0,0,1-.79-1l2.13-6.63a1.58,1.58,0,0,1,1.16-1,1.38,1.38,0,0,1,.29-.05h2.6a.94.94,0,0,1,.26.05.7.7,0,0,1,.54.85Z"/><path class="cls-1" d="M34.76,1.1,32.9,6.88a1.6,1.6,0,0,1-1.44,1h-2.6a.75.75,0,0,1-.79-1l0-.08H24.5a.83.83,0,0,1,0,.45l-2.13,6.63a1.16,1.16,0,0,1-.07.12H32.57l.13-.42a1.6,1.6,0,0,1,1.44-1h2.6a.75.75,0,0,1,.79,1L35.4,20.21a1.6,1.6,0,0,1-1.44,1h-2.6a.78.78,0,0,1-.75-.43H20a1,1,0,0,1,0,.12l-2.13,6.63a1.26,1.26,0,0,1-.16.29h9.43l.08-.25a1.6,1.6,0,0,1,1.44-1h2.6a.75.75,0,0,1,.79,1L29.9,34.21a1.6,1.6,0,0,1-1.44,1h-2.6a.76.76,0,0,1-.82-.6h-2.7a.82.82,0,0,1,0,.45l-2.13,6.63a1.48,1.48,0,0,1-.67.78h.24c.53,0,1.07.06,1.62.06,13.35,0,25.5-9.5,27.14-21.24C49.83,11.9,44,3.91,34.76,1.1Z"/></g></g></svg>