<svg xmlns="http://www.w3.org/2000/svg" viewBox="0 0 17.52 24.94"><title>icon-catalog-handle</title><g id="Слой_2" data-name="Слой 2"><g id="Слой_1-2" data-name="Слой 1"><path d="M16.61,7.27H7.39a1.81,1.81,0,1,0,0,1.81h9.22a.91.91,0,0,0,0-1.81Z"/><path d="M5.75,4.36a3.81,3.81,0,0,1,2.46.91h3.11V5a5,5,0,0,0-5-5H5A5,5,0,0,0,0,5V19.94a5,5,0,0,0,5,5H6.31a5,5,0,0,0,5-5V11.08H8.21A3.81,3.81,0,1,1,5.75,4.36ZM5.66,15.94a1.37,1.37,0,0,1,.94,2.38V20a.94.94,0,1,1-1.88,0V18.31a1.37,1.37,0,0,1,.94-2.38Z"/></g></g></svg>