<svg xmlns="http://www.w3.org/2000/svg" viewBox="0 0 22.98 24.11"><title>icon-catalog-furniture</title><g id="Слой_2" data-name="Слой 2"><g id="Слой_1-2" data-name="Слой 1"><circle cx="5.18" cy="6.46" r="1"/><circle cx="4.05" cy="12.34" r="1"/><circle cx="4.99" cy="17.52" r="1"/><path d="M20.68,1.72H15.55a2.28,2.28,0,0,0-1,.26V1.65A1.62,1.62,0,0,0,12.93,0H10.17A1.62,1.62,0,0,0,8.59,1.65v.4a2.27,2.27,0,0,0-1.16-.33H2.3A2.3,2.3,0,0,0,0,4V20.46a2.3,2.3,0,0,0,2.3,2.3H7.43a2.27,2.27,0,0,0,1.16-.33v0a1.62,1.62,0,0,0,1.59,1.65h2.75a1.62,1.62,0,0,0,1.58-1.61,2.27,2.27,0,0,0,1,.26h5.13a2.3,2.3,0,0,0,2.3-2.3V4A2.3,2.3,0,0,0,20.68,1.72ZM8.43,20.46a1,1,0,0,1-1,1H2.3a1,1,0,0,1-1-1V4a1,1,0,0,1,1-1H7.43a1,1,0,0,1,1,1Zm1.46-10h3.33v2.76H9.89Zm3.33-1.3H9.89V6.49h3.33ZM9.89,14.55h3.33v2.7H9.89ZM10.17,1.3h2.75a.33.33,0,0,1,.29.35V5.19H9.89V1.65A.33.33,0,0,1,10.17,1.3Zm2.75,21.51H10.17a.33.33,0,0,1-.29-.35V18.55h3.33v3.91A.32.32,0,0,1,12.93,22.81Zm8.75-2.35a1,1,0,0,1-1,1H15.55a1,1,0,0,1-1-1V4a1,1,0,0,1,1-1h5.13a1,1,0,0,1,1,1Z"/><circle cx="17.8" cy="6.46" r="1"/><circle cx="18.93" cy="12.34" r="1"/><circle cx="17.99" cy="17.52" r="1"/></g></g></svg>