<svg xmlns="http://www.w3.org/2000/svg" viewBox="0 0 26 24.83"><title>icon-catalog-master</title><g id="Слой_2" data-name="Слой 2"><g id="Слой_1-2" data-name="Слой 1"><rect y="12.89" width="1" height="4.92"/><rect x="3" y="11.78" width="1" height="7.13"/><path d="M25.44,18H15.81a1.56,1.56,0,1,0,0,1.13h9.63a.56.56,0,0,0,0-1.13Z"/><path d="M14.57,22.08A3.56,3.56,0,1,1,17,16h4.17V1a1,1,0,0,0-1-1h-12a1,1,0,0,0-1,1V23.83a1,1,0,0,0,1,1h12a1,1,0,0,0,1-1V21.08H17A3.54,3.54,0,0,1,14.57,22.08ZM17.7,1.79h2v2h-2Zm0,3h2v2h-2Zm0,3h2v2h-2Zm-3-6h2v2h-2Zm0,3h2v2h-2Zm0,3h2v2h-2Zm0,3h2v2h-2Zm-3-9h2v2h-2Zm0,3h2v2h-2Zm0,3h2v2h-2Zm0,3h2v2h-2Zm-1-1h-2v-2h2Zm0-3h-2v-2h2Zm0-3h-2v-2h2Z"/></g></g></svg>