<svg xmlns="http://www.w3.org/2000/svg" viewBox="0 0 20.43 21.13"><title>icon-catalog-keys</title><g id="Слой_2" data-name="Слой 2"><g id="Слой_1-2" data-name="Слой 1"><path d="M18.42,0H11.55a2,2,0,0,0-2,2V8.88a2,2,0,0,0,2,2H13v2.19h1a.5.5,0,0,1,.5.5v.19a.5.5,0,0,1-.5.5H13v1h1a.5.5,0,0,1,.5.5v.19a.5.5,0,0,1-.5.5H13V19h0a.41.41,0,0,0,.11.36L14.75,21a.42.42,0,0,0,.6,0L17,19.36a.41.41,0,0,0,.11-.36h0V10.88h1.3a2,2,0,0,0,2-2V2A2,2,0,0,0,18.42,0ZM15,2.31a1,1,0,1,1-1,1A1,1,0,0,1,15,2.31Z"/><path d="M8.13,1.67,4.9,4.9a2,2,0,0,0,0,2.83l1,1L4.37,10.29l.72.72a.5.5,0,0,1,0,.71L5,11.85a.5.5,0,0,1-.71,0l-.72-.72-.71.71.72.72a.5.5,0,0,1,0,.71l-.13.13a.5.5,0,0,1-.71,0L2,12.68.17,14.49h0a.41.41,0,0,0-.18.33v2.33a.42.42,0,0,0,.42.42H2.75a.41.41,0,0,0,.33-.18h0l5-5V1.67Z"/></g></g></svg>