<svg xmlns="http://www.w3.org/2000/svg" viewBox="0 0 25.56 25.38"><title>icon-catalog-lock</title><g id="Слой_2" data-name="Слой 2"><g id="Слой_1-2" data-name="Слой 1"><path d="M25.56,11.38V7.5H20.44V2a2,2,0,0,0-2-2H2A2,2,0,0,0,0,2V23.38a2,2,0,0,0,2,2H18.44a2,2,0,0,0,2-2V17.5h5.13V13.63H20.44V11.38ZM3.84,22.88a1.34,1.34,0,1,1,1.34-1.34A1.34,1.34,0,0,1,3.84,22.88Zm0-18.06A1.34,1.34,0,1,1,5.19,3.47,1.34,1.34,0,0,1,3.84,4.81Zm9.78,10H11.56v0a1.2,1.2,0,1,1-2.41,0v0H7.09a.78.78,0,0,1,0-1.56H9.16v0a1.2,1.2,0,1,1,2.41,0v0h2.06a.78.78,0,0,1,0,1.56Zm3.09,8.09a1.34,1.34,0,1,1,1.34-1.34A1.34,1.34,0,0,1,16.72,22.88Zm0-18.06a1.34,1.34,0,1,1,1.34-1.34A1.34,1.34,0,0,1,16.72,4.81Z"/></g></g></svg>