<?xml version="1.0" encoding="utf-8"?>
<!-- Generator: Adobe Illustrator 15.1.0, SVG Export Plug-In . SVG Version: 6.00 Build 0)  -->
<!DOCTYPE svg PUBLIC "-//W3C//DTD SVG 1.1//EN" "http://www.w3.org/Graphics/SVG/1.1/DTD/svg11.dtd">
<svg version="1.1" id="Слой_1" xmlns="http://www.w3.org/2000/svg" xmlns:xlink="http://www.w3.org/1999/xlink" x="0px" y="0px"
	 width="43.5px" height="43.5px" viewBox="0 0 43.5 43.5" enable-background="new 0 0 43.5 43.5" xml:space="preserve">
<g>
	<path d="M34.996,0H8.504C3.807,0,0,3.807,0,8.504v26.492C0,39.692,3.807,43.5,8.504,43.5h26.492c4.696,0,8.504-3.808,8.504-8.504
		V8.504C43.5,3.807,39.692,0,34.996,0z M40.5,34.996c0,3.035-2.469,5.504-5.504,5.504H8.504C5.469,40.5,3,38.031,3,34.996V8.504
		C3,5.469,5.469,3,8.504,3h26.492C38.031,3,40.5,5.469,40.5,8.504V34.996z"/>
	<path d="M15.106,14.694C13.401,12.992,10.866,13,8.637,13l-2.304,0c-0.829,0-1.5,0.671-1.5,1.5s0.671,1.5,1.5,1.5l2.309,0
		c1.728-0.001,3.52-0.005,4.345,0.817c0.451,0.45,0.68,1.241,0.68,2.35c0,0.739-0.209,1.274-0.659,1.683
		c-1.146,1.043-3.536,1.063-4.358,0.992c-0.426-0.043-0.841,0.096-1.155,0.38C7.179,22.505,7,22.91,7,23.333V29.5
		C7,30.329,7.671,31,8.5,31s1.5-0.672,1.5-1.5v-4.649c1.454-0.077,3.545-0.441,5.016-1.773c1.08-0.978,1.65-2.33,1.65-3.911
		C16.667,17.232,16.142,15.728,15.106,14.694z"/>
	<path d="M26.167,14.667c0-0.829-0.672-1.5-1.5-1.5s-1.5,0.671-1.5,1.5v5.474c-1.706-0.076-4.122,0.104-5.768,1.459
		c-1.133,0.933-1.732,2.281-1.732,3.9c0,1.637,0.603,2.996,1.742,3.93c1.418,1.163,3.398,1.444,4.98,1.444
		c1.309,0,2.346-0.191,2.571-0.237c0.701-0.141,1.206-0.756,1.206-1.471V14.667z M23.167,27.844
		c-1.24,0.085-2.949,0.009-3.856-0.733c-0.276-0.227-0.644-0.641-0.644-1.61c0-0.947,0.363-1.356,0.636-1.582
		c0.744-0.614,2.045-0.786,3.199-0.786c0.229,0,0.453,0.007,0.665,0.019V27.844z"/>
	<path d="M36.833,13.333h-4.667c-0.188,0-1.168,0.03-2.177,0.624c-0.806,0.474-2.156,1.65-2.156,4.209V29c0,0.828,0.672,1.5,1.5,1.5
		s1.5-0.672,1.5-1.5v-5.5h3c0.828,0,1.5-0.672,1.5-1.5c0-0.829-0.672-1.5-1.5-1.5h-3v-2.334c0-1.471,0.739-1.809,1.333-1.833h4.667
		c0.828,0,1.5-0.671,1.5-1.5S37.662,13.333,36.833,13.333z"/>
</g>
</svg>
