<svg xmlns="http://www.w3.org/2000/svg" viewBox="0 0 607.14 626.53"><title>icon-compare-plus</title><g id="Слой_2" data-name="Слой 2"><g id="Слой_1-2" data-name="Слой 1"><g id="Слой_2-2" data-name="Слой 2"><g id="Слой_1-2-2" data-name="Слой 1-2"><path d="M54.6,626V393.4a158.33,158.33,0,0,1,304.29-60.79A156.15,156.15,0,0,0,209.11,488.4V626.17h54.6v-138A101.55,101.55,0,0,1,365.08,386.85h5.64V626h54.6V407.59a101.19,101.19,0,0,1,40.95,81.17V626.53h54.6V488.22a156.15,156.15,0,0,0-102.1-145.6c-29.3-113.79-145.3-182.27-259.08-153A212.75,212.75,0,0,0,0,393.4V626H54.6Z"/></g></g><path d="M579.14,75h-47V28a28,28,0,0,0-56,0V75h-47a28,28,0,0,0,0,56h47v47a28,28,0,0,0,56,0V131h47a28,28,0,0,0,0-56Z"/></g></g></svg>