<svg xmlns="http://www.w3.org/2000/svg" viewBox="0 0 595.28 298.62"><title>icon-delivery-bold</title><g id="Слой_2" data-name="Слой 2"><g id="Слой_1-2" data-name="Слой 1"><path d="M124.34,54.83H9.79C3.92,54.83,0,58.74,0,64.62s3.92,9.79,9.79,9.79H124.34c5.88,0,9.79-3.92,9.79-9.79S130.22,54.83,124.34,54.83Z"/><path d="M124.34,119.45H36.23c-5.87,0-9.79,3.92-9.79,9.79S30.35,139,36.23,139h88.12c5.88,0,9.79-3.92,9.79-9.79S130.22,119.45,124.34,119.45Z"/><path d="M124.34,178.19H56.79c-5.87,0-9.79,3.92-9.79,9.79s3.92,9.79,9.79,9.79h67.56c5.88,0,9.79-3.92,9.79-9.79S130.22,178.19,124.34,178.19Z"/><path d="M557.1,138.05H526.74c-5.87-70.49-45-78.33-47-78.33H450.38V37.21C450.38,16.64,432.75,0,412.19,0H185a37.19,37.19,0,0,0-37.21,37.21V216.38A37.19,37.19,0,0,0,185,253.58h17.62a49.07,49.07,0,0,0,49,45c25.46,0,46-19.58,49-45H447.44a49.07,49.07,0,0,0,49,45c25.46,0,46-19.58,49-45h12.73a37.19,37.19,0,0,0,37.21-37.2V176.23C595.28,154.7,578.64,138.05,557.1,138.05ZM476.81,79.3c3.92,1,26.44,10.77,30.35,59.73H450.38V79.3ZM251.62,280a29.46,29.46,0,0,1-29.37-29.37c0-15.67,13.71-29.37,29.37-29.37,14.69,0,26.43,10.77,29.37,24.48h0v4.9A29.46,29.46,0,0,1,251.62,280Zm244.77,0A29.46,29.46,0,0,1,467,250.65v-4.9h0c2.94-13.71,14.69-24.48,29.37-24.48a29.37,29.37,0,0,1,0,58.75Z"/></g></g></svg>