<?xml version="1.0" encoding="utf-8"?>
<!-- Generator: Adobe Illustrator 20.1.0, SVG Export Plug-In . SVG Version: 6.00 Build 0)  -->
<svg version="1.1" id="Слой_1" xmlns="http://www.w3.org/2000/svg" xmlns:xlink="http://www.w3.org/1999/xlink" x="0px" y="0px"
	 viewBox="0 0 130.3 130.2" style="enable-background:new 0 0 130.3 130.2;" xml:space="preserve">
<path d="M65.1,0C29.2,0,0,29.2,0,65.1s29.2,65.1,65.1,65.1s65.1-29.2,65.1-65.1S101.1,0,65.1,0z M71.1,63.2V83c0,3.3-2.7,6-6,6
	s-6-2.7-6-6V63.2c-3.9-2.1-6.6-6.3-6.6-11.1c0-7,5.7-12.6,12.6-12.6c7,0,12.6,5.7,12.6,12.6C77.8,56.9,75.1,61.1,71.1,63.2z"/>
</svg>
