<svg xmlns="http://www.w3.org/2000/svg" viewBox="0 0 65.36 15.88"><title>icon-type-1</title><g id="Слой_2" data-name="Слой 2"><g id="Слой_1-2" data-name="Слой 1"><path d="M30.42,7.29a23.89,23.89,0,0,0-3-2.41,3.49,3.49,0,0,0-.66-.46,7.63,7.63,0,0,0-1.6-.09H15a7.94,7.94,0,1,0-1.45,9.23,7.87,7.87,0,0,0,.72-.84c.77.07,1.14.19,2,.22,1.59.05,1.39-.88,1.59-1.37a1,1,0,0,1,1.88-.31c.3.45.06.68.59,1.35a1.34,1.34,0,0,0,1.85.27c.48-.38.39-.91.77-1.51a1,1,0,0,1,1.75-.18c.31.33.21.93,1.11,1.42s1.77-.73,1.77-.73a34.44,34.44,0,0,0,3-2.56A1.7,1.7,0,0,0,30.42,7.29ZM10.08,10.07a2.74,2.74,0,1,1,0-3.87A2.74,2.74,0,0,1,10.08,10.07Z"/><path d="M34.77,9.32a34.61,34.61,0,0,0,3,2.56s.94,1.19,1.77.73.8-1.09,1.11-1.42a1,1,0,0,1,1.75.18c.38.6.29,1.13.77,1.51a1.34,1.34,0,0,0,1.85-.27c.53-.67.29-.9.59-1.35a1,1,0,0,1,1.88.31c.2.49,0,1.42,1.59,1.37.84,0,1.2-.15,2-.22a7.77,7.77,0,0,0,.72.84,8,8,0,1,0-1.45-9.23H40.23a7.62,7.62,0,0,0-1.6.09,3.49,3.49,0,0,0-.66.46,23.89,23.89,0,0,0-3,2.41A1.71,1.71,0,0,0,34.77,9.32ZM55.28,6.2a2.74,2.74,0,1,1,0,3.87A2.74,2.74,0,0,1,55.28,6.2Z"/><rect x="32.13" y="2.17" width="1" height="11.97"/></g></g></svg>