<?xml version="1.0" encoding="utf-8"?>
<!-- Generator: Adobe Illustrator 20.1.0, SVG Export Plug-In . SVG Version: 6.00 Build 0)  -->
<svg version="1.1" id="Слой_1" xmlns="http://www.w3.org/2000/svg" xmlns:xlink="http://www.w3.org/1999/xlink" x="0px" y="0px"
	 viewBox="0 0 59.4 15.9" style="enable-background:new 0 0 59.4 15.9;" xml:space="preserve">
<style type="text/css">
	.st0{fill:none;stroke:#000000;stroke-miterlimit:10;}
</style>
<path d="M30.4,7.3c-0.6-0.7-3-2.4-3-2.4s-0.5-0.4-0.7-0.5c-0.4-0.1-1.6-0.1-1.6-0.1L15,4.3c-0.4-0.7-0.8-1.4-1.5-2
	c-3.1-3.1-8.1-3.1-11.2,0c-3.1,3.1-3.1,8.1,0,11.2c3.1,3.1,8.1,3.1,11.2,0c0.3-0.3,0.5-0.6,0.7-0.8c0.8,0.1,1.1,0.2,2,0.2
	c1.6,0.1,1.4-0.9,1.6-1.4c0.4-1.1,1.5-0.9,1.9-0.3c0.3,0.4,0.1,0.7,0.6,1.3c0.6,0.7,1.5,0.6,1.9,0.3c0.5-0.4,0.4-0.9,0.8-1.5
	c0.6-0.9,1.3-0.6,1.7-0.2c0.3,0.3,0.2,0.9,1.1,1.4c0.8,0.5,1.8-0.7,1.8-0.7s2.5-1.9,3-2.6C31.1,8.7,30.7,7.7,30.4,7.3z M10.1,10.1
	c-1.1,1.1-2.8,1.1-3.9,0C5.1,9,5.1,7.3,6.2,6.2c1.1-1.1,2.8-1.1,3.9,0C11.1,7.3,11.1,9,10.1,10.1z"/>
<line class="st0" x1="33.1" y1="2.4" x2="33.1" y2="13.9"/>
<path d="M59.4,7.8c0,1.3-1.1,2.4-2.4,2.4H39.5c-1.3,0-2.4-1.1-2.4-2.4l0,0c0-1.3,1.1-2.4,2.4-2.4H57C58.3,5.4,59.4,6.5,59.4,7.8
	L59.4,7.8z"/>
</svg>
