<?xml version="1.0" encoding="utf-8"?>
<!-- Generator: Adobe Illustrator 20.1.0, SVG Export Plug-In . SVG Version: 6.00 Build 0)  -->
<svg version="1.1" id="Слой_1" xmlns="http://www.w3.org/2000/svg" xmlns:xlink="http://www.w3.org/1999/xlink" x="0px" y="0px"
	 viewBox="0 0 24.3 24.3" style="enable-background:new 0 0 24.3 24.3;" xml:space="preserve">
<style type="text/css">
	.st0{fill:#FFFFFF;}
	.st1{fill:#3E7A4E;}
</style>
<title>icon-whatsapp</title>
<g id="Слой_2">
	<g id="Слой_1-2">
		<g id="Capa_1">
			<path class="st0" d="M12.2,0L12.2,0C5.5,0,0,5.4,0,12.2c0,2.6,0.8,5.1,2.3,7.1l-1.5,4.5l4.7-1.5c5.6,3.7,13.2,2.1,16.8-3.5
				S24.4,5.7,18.8,2C16.8,0.7,14.5,0,12.2,0z"/>
			<path class="st1" d="M18.5,16.4c-0.4,0.8-1.2,1.3-2.1,1.5c-0.6,0.1-1.3,0.2-3.7-0.8c-2.1-1-4-2.7-5.3-4.6c-0.7-0.9-1.2-2-1.3-3.2
				c0-1,0.4-1.9,1.1-2.6C7.6,6.5,8,6.3,8.4,6.3h0.4c0.3,0,0.5,0,0.7,0.5s0.9,2.1,1,2.3c0.1,0.2,0.1,0.4,0,0.6
				c-0.1,0.2-0.2,0.3-0.3,0.5c-0.2,0.2-0.3,0.3-0.5,0.5s-0.3,0.4-0.1,0.7c0.5,0.8,1,1.5,1.7,2.1c0.7,0.6,1.6,1.2,2.5,1.5
				c0.3,0.1,0.5,0.1,0.8-0.1c0.3-0.3,0.6-0.7,0.8-1.1c0.2-0.3,0.5-0.4,0.8-0.2c0.3,0.1,1.8,0.8,2.1,1s0.5,0.2,0.6,0.4
				C18.8,15.4,18.8,16,18.5,16.4z"/>
		</g>
	</g>
</g>
</svg>
