<?xml version="1.0" encoding="utf-8"?>
<!-- Generator: Adobe Illustrator 20.1.0, SVG Export Plug-In . SVG Version: 6.00 Build 0)  -->
<svg version="1.1" id="Слой_1" xmlns="http://www.w3.org/2000/svg" xmlns:xlink="http://www.w3.org/1999/xlink" x="0px" y="0px"
	 viewBox="0 0 8.1 8.1" style="enable-background:new 0 0 8.1 8.1;" xml:space="preserve">
<path d="M5.5,4.1l2.4-2.4c0.4-0.4,0.4-1,0-1.4s-1-0.4-1.4,0L4.1,2.6L1.7,0.3c-0.4-0.4-1-0.4-1.4,0s-0.4,1,0,1.4l2.4,2.4L0.3,6.4
	c-0.4,0.4-0.4,1,0,1.4C0.5,8,0.7,8.1,1,8.1S1.5,8,1.7,7.8l2.4-2.4l2.4,2.4C6.6,8,6.9,8.1,7.1,8.1S7.6,8,7.8,7.8c0.4-0.4,0.4-1,0-1.4
	L5.5,4.1z"/>
</svg>
