<?xml version="1.0" encoding="utf-8"?>
<!-- Generator: Adobe Illustrator 20.1.0, SVG Export Plug-In . SVG Version: 6.00 Build 0)  -->
<svg version="1.1" id="Слой_1" xmlns="http://www.w3.org/2000/svg" xmlns:xlink="http://www.w3.org/1999/xlink" x="0px" y="0px"
	 viewBox="0 0 23.9 27.5" style="enable-background:new 0 0 23.9 27.5;" xml:space="preserve">
<path d="M22.9,3h-8.6c0.1-0.2,0.1-0.4,0.1-0.6c0-1.3-1.1-2.4-2.4-2.4S9.5,1.1,9.5,2.4c0,0.2,0,0.4,0.1,0.6H0.9C0.4,3,0,3.4,0,4
	s0.4,1,0.9,1h22c0.5,0,0.9-0.5,0.9-1C23.9,3.4,23.5,3,22.9,3z"/>
<path d="M12,7.1L12,7.1H1.7c0,0,1.5,14.3,1.9,17.4c0.4,2.8,2.9,3,2.9,3s2.6,0,5.4,0c0,0,0,0,0.1,0c2.8,0,5.4,0,5.4,0s2.5-0.2,2.9-3
	c0.4-3.1,1.9-17.4,1.9-17.4S12,7.1,12,7.1z M8.1,24.3C8.1,24.3,8.1,24.3,8.1,24.3c-0.5,0-0.8-0.3-0.9-0.7L6,11.4
	c0-0.4,0.3-0.8,0.7-0.9c0.4,0,0.8,0.3,0.9,0.7l1.2,12.2C8.9,23.9,8.5,24.3,8.1,24.3z M12.7,23.6c0,0.4-0.4,0.8-0.8,0.8
	s-0.8-0.4-0.8-0.8V11.1c0-0.4,0.4-0.8,0.8-0.8s0.8,0.4,0.8,0.8V23.6z M16.6,23.6c0,0.4-0.4,0.7-0.8,0.7c0,0-0.1,0-0.1,0
	c-0.4,0-0.8-0.4-0.7-0.9l1.2-12.2c0-0.4,0.4-0.8,0.9-0.7c0.4,0,0.8,0.4,0.7,0.9L16.6,23.6z"/>
</svg>
