<?xml version="1.0" encoding="utf-8"?>
<!-- Generator: Adobe Illustrator 15.1.0, SVG Export Plug-In . SVG Version: 6.00 Build 0)  -->
<!DOCTYPE svg PUBLIC "-//W3C//DTD SVG 1.1//EN" "http://www.w3.org/Graphics/SVG/1.1/DTD/svg11.dtd">
<svg version="1.1" id="Слой_1" xmlns="http://www.w3.org/2000/svg" xmlns:xlink="http://www.w3.org/1999/xlink" x="0px" y="0px"
	 width="28.355px" height="27.656px" viewBox="0 0 28.355 27.656" enable-background="new 0 0 28.355 27.656" xml:space="preserve">
<path d="M28.339,1.416C28.256,0.499,26.672,0,26.672,0l-5.333,0.333L11.166,10.99c-0.828-0.269-1.708-0.417-2.625-0.417
	C3.832,10.573,0,14.405,0,19.115s3.832,8.541,8.542,8.541c4.71,0,8.542-3.831,8.542-8.541c0-0.403-0.038-0.797-0.093-1.185
	c0.644-0.534,1.772-1.484,2.431-2.098c1.25-1.167,0.387-1.731,0.167-2.25c-0.479-1.13,0.411-1.817,1.192-1.661
	c0.566,0.113,0.563,0.469,1.474,0.578c0.993,0.119,1.558-0.673,1.62-1.203c0.078-0.656-0.396-0.984-0.563-1.734
	c-0.26-1.165,0.547-1.49,1.188-1.469c0.486,0.017,0.852,0.477,1.922,0.239c1.5-0.333,1.75-2,1.75-2S28.422,2.333,28.339,1.416z
	 M8.417,22.781c-1.954,0-3.543-1.589-3.543-3.543s1.589-3.543,3.543-3.543c1.955,0,3.543,1.589,3.543,3.543
	S10.371,22.781,8.417,22.781z"/>
</svg>
