<?xml version="1.0" encoding="utf-8"?>
<!-- Generator: Adobe Illustrator 15.1.0, SVG Export Plug-In . SVG Version: 6.00 Build 0)  -->
<!DOCTYPE svg PUBLIC "-//W3C//DTD SVG 1.1//EN" "http://www.w3.org/Graphics/SVG/1.1/DTD/svg11.dtd">
<svg version="1.1" id="Слой_1" xmlns="http://www.w3.org/2000/svg" xmlns:xlink="http://www.w3.org/1999/xlink" x="0px" y="0px"
	 width="23.833px" height="25.683px" viewBox="0 0 23.833 25.683" enable-background="new 0 0 23.833 25.683" xml:space="preserve">
<g>
	<path d="M7.313,25.683c-1.595,0-3.409-0.63-5.226-2.446c-3.387-3.388-1.922-7.407-0.674-9.06c0.031-0.041,0.065-0.079,0.102-0.115
		C1.627,13.954,12.732,3.178,14.004,1.906c0.567-0.568,1.755-1.562,3.321-1.835c1.172-0.203,2.942-0.065,4.76,1.752
		c2.676,2.676,1.709,5.476,0.824,6.582c-0.032,0.04-0.067,0.077-0.104,0.111l-10.334,9.5c-0.925,0.879-2.914,1.608-4.55-0.029
		c-1.711-1.712-1.076-3.573-0.501-4.318c0.03-0.04,0.063-0.077,0.099-0.111l6.083-5.833c0.399-0.383,1.031-0.369,1.414,0.029
		c0.383,0.399,0.369,1.032-0.029,1.414l-6.012,5.765c-0.14,0.225-0.412,0.867,0.36,1.64c0.812,0.811,1.618,0.127,1.771-0.019
		l10.276-9.447c0.234-0.336,1.192-1.966-0.711-3.871c-0.985-0.986-1.965-1.38-3.001-1.196C16.645,2.22,15.82,2.919,15.418,3.32
		C14.172,4.566,3.971,14.466,2.971,15.436c-0.317,0.458-2.291,3.565,0.53,6.387c3.708,3.709,6.79,0.713,6.919,0.583
		c1.202-1.202,8.857-8.536,9.182-8.848c0.396-0.381,1.03-0.369,1.413,0.03c0.383,0.399,0.369,1.032-0.03,1.414
		c-0.079,0.076-7.964,7.632-9.151,8.818C10.955,24.7,9.305,25.683,7.313,25.683z"/>
</g>
</svg>
