<?xml version="1.0" encoding="utf-8"?>
<!-- Generator: Adobe Illustrator 15.1.0, SVG Export Plug-In . SVG Version: 6.00 Build 0)  -->
<!DOCTYPE svg PUBLIC "-//W3C//DTD SVG 1.1//EN" "http://www.w3.org/Graphics/SVG/1.1/DTD/svg11.dtd">
<svg version="1.1" id="Слой_1" xmlns="http://www.w3.org/2000/svg" xmlns:xlink="http://www.w3.org/1999/xlink" x="0px" y="0px"
	 width="17.667px" height="14.833px" viewBox="0 0 17.667 14.833" enable-background="new 0 0 17.667 14.833" xml:space="preserve">
<g>
	<path d="M0.5,3.167h2.656c0.266,1.143,1.288,2,2.511,2s2.245-0.857,2.511-2h8.989c0.276,0,0.5-0.224,0.5-0.5s-0.224-0.5-0.5-0.5
		H8.208C8.007,0.941,6.949,0,5.667,0s-2.34,0.941-2.542,2.167H0.5c-0.276,0-0.5,0.224-0.5,0.5S0.224,3.167,0.5,3.167z M5.667,1
		C6.54,1,7.25,1.71,7.25,2.583S6.54,4.167,5.667,4.167s-1.583-0.71-1.583-1.583S4.794,1,5.667,1z"/>
	<path d="M17.167,11.833H8.208c-0.201-1.226-1.259-2.167-2.541-2.167s-2.34,0.941-2.542,2.167H0.5c-0.276,0-0.5,0.224-0.5,0.5
		s0.224,0.5,0.5,0.5h2.656c0.266,1.144,1.288,2,2.511,2s2.245-0.856,2.511-2h8.989c0.276,0,0.5-0.224,0.5-0.5
		S17.443,11.833,17.167,11.833z M5.667,13.833c-0.873,0-1.583-0.71-1.583-1.583s0.71-1.584,1.583-1.584S7.25,11.377,7.25,12.25
		S6.54,13.833,5.667,13.833z"/>
	<path d="M17.167,7h-2.626C14.34,5.774,13.281,4.833,12,4.833S9.66,5.774,9.459,7H0.5C0.224,7,0,7.224,0,7.5S0.224,8,0.5,8h8.989
		c0.266,1.143,1.288,2,2.511,2s2.245-0.857,2.511-2h2.656c0.276,0,0.5-0.224,0.5-0.5S17.443,7,17.167,7z M12,9
		c-0.873,0-1.583-0.71-1.583-1.583c0-0.874,0.71-1.584,1.583-1.584s1.583,0.71,1.583,1.584C13.583,8.29,12.873,9,12,9z"/>
</g>
</svg>
