<?xml version="1.0" encoding="utf-8"?>
<!-- Generator: Adobe Illustrator 20.1.0, SVG Export Plug-In . SVG Version: 6.00 Build 0)  -->
<svg version="1.1" id="Слой_1" xmlns="http://www.w3.org/2000/svg" xmlns:xlink="http://www.w3.org/1999/xlink" x="0px" y="0px"
	 viewBox="0 0 60.8 30.6" style="enable-background:new 0 0 60.8 30.6;" xml:space="preserve">
<g>
	<path d="M12.7,5.6H1c-0.6,0-1,0.4-1,1s0.4,1,1,1h11.7c0.6,0,1-0.4,1-1S13.3,5.6,12.7,5.6z"/>
	<path d="M12.7,12.2h-9c-0.6,0-1,0.4-1,1s0.4,1,1,1h9c0.6,0,1-0.4,1-1S13.3,12.2,12.7,12.2z"/>
	<path d="M12.7,18.2H5.8c-0.6,0-1,0.4-1,1s0.4,1,1,1h6.9c0.6,0,1-0.4,1-1S13.3,18.2,12.7,18.2z"/>
	<path d="M56.9,14.1h-3.1c-0.6-7.2-4.6-8-4.8-8c-0.1,0-0.1,0-0.2,0H46V3.8C46,1.7,44.2,0,42.1,0H18.9c-2.1,0-3.8,1.7-3.8,3.8v18.3
		c0,2.1,1.7,3.8,3.8,3.8h1.8c0.2,2.6,2.4,4.6,5,4.6s4.7-2,5-4.6h15c0.2,2.6,2.4,4.6,5,4.6s4.7-2,5-4.6h1.3c2.1,0,3.8-1.7,3.8-3.8V18
		C60.8,15.8,59.1,14.1,56.9,14.1z M48.7,8.1c0.4,0.1,2.7,1.1,3.1,6.1H46V8.1H48.7z M25.7,28.6c-1.7,0-3-1.4-3-3s1.4-3,3-3
		c1.5,0,2.7,1.1,3,2.5c0,0,0,0,0,0c0,0,0,0.1,0,0.1c0,0.1,0,0.3,0,0.4C28.7,27.2,27.4,28.6,25.7,28.6z M50.7,28.6c-1.7,0-3-1.4-3-3
		c0-0.1,0-0.3,0-0.4c0,0,0-0.1,0-0.1c0,0,0,0,0,0c0.3-1.4,1.5-2.5,3-2.5c1.7,0,3,1.4,3,3S52.4,28.6,50.7,28.6z M58.8,22.2
		c0,1-0.8,1.8-1.8,1.8h-1.5c-0.7-2-2.5-3.5-4.8-3.5S46.6,22,45.9,24H30.5c-0.7-2-2.5-3.5-4.8-3.5S21.6,22,20.9,24h-2
		c-1,0-1.8-0.8-1.8-1.8V3.8c0-1,0.8-1.8,1.8-1.8h23.2c1,0,1.8,0.8,1.8,1.8v11.3c0,0.6,0.4,1,1,1h12c1,0,1.8,0.8,1.8,1.8L58.8,22.2
		L58.8,22.2z"/>
</g>
</svg>
