<?xml version="1.0" encoding="utf-8"?>
<!-- Generator: Adobe Illustrator 15.1.0, SVG Export Plug-In . SVG Version: 6.00 Build 0)  -->
<!DOCTYPE svg PUBLIC "-//W3C//DTD SVG 1.1//EN" "http://www.w3.org/Graphics/SVG/1.1/DTD/svg11.dtd">
<svg version="1.1" id="Слой_1" xmlns="http://www.w3.org/2000/svg" xmlns:xlink="http://www.w3.org/1999/xlink" x="0px" y="0px"
	 width="58.25px" height="58.25px" viewBox="0 0 58.25 58.25" enable-background="new 0 0 58.25 58.25" xml:space="preserve">
<path d="M58.25,29.125C58.25,13.04,45.21,0,29.125,0C21.651,0,14.837,2.818,9.681,7.446l40.958,41.309
	C55.366,43.577,58.25,36.688,58.25,29.125z"/>
<path d="M0,29.125C0,45.21,13.04,58.25,29.125,58.25c7.442,0,14.229-2.796,19.378-7.389L7.552,9.559C2.86,14.729,0,21.593,0,29.125z
	"/>
<path fill="#FFFFFF" d="M46.901,18.333c-0.064-0.722-1.296-1.115-1.296-1.115l-4.148,0.263l-7.911,8.393
	c-0.645-0.212-1.33-0.329-2.042-0.329c-3.663,0-6.643,3.018-6.643,6.728c0,3.709,2.98,6.727,6.643,6.727
	c3.664,0,6.645-3.018,6.645-6.727c0-0.318-0.03-0.627-0.072-0.934c0.5-0.42,1.378-1.168,1.89-1.652
	c0.973-0.918,0.302-1.363,0.13-1.771c-0.372-0.89,0.32-1.432,0.928-1.309c0.44,0.089,0.438,0.37,1.146,0.455
	c0.773,0.095,1.212-0.53,1.261-0.947c0.061-0.517-0.308-0.775-0.438-1.365c-0.203-0.918,0.425-1.175,0.924-1.158
	c0.379,0.014,0.662,0.375,1.494,0.188c1.166-0.263,1.361-1.575,1.361-1.575S46.966,19.056,46.901,18.333z M31.406,35.161
	c-1.52,0-2.756-1.252-2.756-2.791s1.236-2.79,2.756-2.79c1.521,0,2.757,1.251,2.757,2.79S32.927,35.161,31.406,35.161z"/>
<path d="M41.776,18.333c-0.064-0.722-1.296-1.115-1.296-1.115l-4.148,0.263l-7.911,8.393c-0.645-0.212-1.33-0.329-2.042-0.329
	c-3.663,0-6.643,3.018-6.643,6.728c0,3.709,2.98,6.727,6.643,6.727c3.664,0,6.645-3.018,6.645-6.727c0-0.318-0.03-0.627-0.072-0.934
	c0.5-0.42,1.378-1.168,1.89-1.652c0.973-0.918,0.302-1.363,0.13-1.771c-0.372-0.89,0.32-1.432,0.928-1.309
	c0.44,0.089,0.438,0.37,1.146,0.455c0.773,0.095,1.212-0.53,1.261-0.947c0.061-0.517-0.308-0.775-0.438-1.365
	c-0.203-0.918,0.425-1.175,0.924-1.158c0.379,0.014,0.662,0.375,1.494,0.188c1.166-0.263,1.361-1.575,1.361-1.575
	S41.841,19.056,41.776,18.333z M26.281,35.161c-1.52,0-2.756-1.252-2.756-2.791s1.236-2.79,2.756-2.79
	c1.521,0,2.757,1.251,2.757,2.79S27.802,35.161,26.281,35.161z"/>
<path fill="#FFFFFF" d="M40.401,18.333c-0.064-0.722-1.296-1.115-1.296-1.115l-4.148,0.263l-7.911,8.393
	c-0.645-0.212-1.33-0.329-2.042-0.329c-3.663,0-6.643,3.018-6.643,6.728c0,3.709,2.98,6.727,6.643,6.727
	c3.664,0,6.645-3.018,6.645-6.727c0-0.318-0.03-0.627-0.072-0.934c0.5-0.42,1.378-1.168,1.89-1.652
	c0.973-0.918,0.302-1.363,0.13-1.771c-0.372-0.89,0.32-1.432,0.928-1.309c0.44,0.089,0.438,0.37,1.146,0.455
	c0.773,0.095,1.212-0.53,1.261-0.947c0.061-0.517-0.308-0.775-0.438-1.365c-0.203-0.918,0.425-1.175,0.924-1.158
	c0.379,0.014,0.662,0.375,1.494,0.188c1.166-0.263,1.361-1.575,1.361-1.575S40.466,19.056,40.401,18.333z M24.906,35.161
	c-1.52,0-2.756-1.252-2.756-2.791s1.236-2.79,2.756-2.79c1.521,0,2.757,1.251,2.757,2.79S26.427,35.161,24.906,35.161z"/>
<path d="M34.984,18.333c-0.064-0.722-1.295-1.115-1.295-1.115l-4.148,0.263l-7.912,8.393c-0.645-0.212-1.33-0.329-2.042-0.329
	c-3.663,0-6.643,3.018-6.643,6.728c0,3.709,2.98,6.727,6.643,6.727c3.664,0,6.645-3.018,6.645-6.727c0-0.318-0.03-0.627-0.072-0.934
	c0.5-0.42,1.378-1.168,1.89-1.652c0.973-0.918,0.302-1.363,0.13-1.771c-0.372-0.89,0.32-1.432,0.928-1.309
	c0.44,0.089,0.438,0.37,1.145,0.455c0.773,0.095,1.213-0.53,1.262-0.947c0.061-0.517-0.309-0.775-0.438-1.365
	C30.873,23.833,31.5,23.576,32,23.593c0.379,0.014,0.662,0.375,1.494,0.188c1.166-0.263,1.361-1.575,1.361-1.575
	S35.049,19.056,34.984,18.333z M19.49,35.161c-1.52,0-2.756-1.252-2.756-2.791s1.236-2.79,2.756-2.79
	c1.521,0,2.757,1.251,2.757,2.79S21.01,35.161,19.49,35.161z"/>
<path fill="#FFFFFF" d="M33.609,18.333c-0.064-0.722-1.295-1.115-1.295-1.115l-4.149,0.263l-7.911,8.393
	c-0.645-0.212-1.33-0.329-2.042-0.329c-3.663,0-6.643,3.018-6.643,6.728c0,3.709,2.98,6.727,6.643,6.727
	c3.664,0,6.645-3.018,6.645-6.727c0-0.318-0.03-0.627-0.072-0.934c0.5-0.42,1.378-1.168,1.89-1.652
	c0.973-0.918,0.302-1.363,0.13-1.771c-0.372-0.89,0.32-1.432,0.928-1.309c0.44,0.089,0.438,0.37,1.146,0.455
	c0.773,0.095,1.212-0.53,1.261-0.947c0.061-0.517-0.309-0.775-0.438-1.365c-0.203-0.918,0.424-1.175,0.924-1.158
	c0.379,0.014,0.662,0.375,1.494,0.188c1.166-0.263,1.361-1.575,1.361-1.575S33.674,19.056,33.609,18.333z M18.115,35.161
	c-1.52,0-2.756-1.252-2.756-2.791s1.236-2.79,2.756-2.79c1.521,0,2.757,1.251,2.757,2.79S19.635,35.161,18.115,35.161z"/>
<path fill="#FFFFFF" d="M50.639,48.755L9.681,7.446C8.937,8.114,8.225,8.818,7.552,9.559l40.951,41.303
	C49.25,50.194,49.965,49.494,50.639,48.755z"/>
</svg>
