<?xml version="1.0" encoding="utf-8"?>
<!-- Generator: Adobe Illustrator 15.1.0, SVG Export Plug-In . SVG Version: 6.00 Build 0)  -->
<!DOCTYPE svg PUBLIC "-//W3C//DTD SVG 1.1//EN" "http://www.w3.org/Graphics/SVG/1.1/DTD/svg11.dtd">
<svg version="1.1" id="Слой_1" xmlns="http://www.w3.org/2000/svg" xmlns:xlink="http://www.w3.org/1999/xlink" x="0px" y="0px"
	 width="65.836px" height="60.07px" viewBox="0 0 65.836 60.07" enable-background="new 0 0 65.836 60.07" xml:space="preserve">
<path d="M12.25,60.07c-10.914,0-15.378-7.732-9.922-17.185L22.997,7.088c5.456-9.451,14.386-9.451,19.842,0l20.669,35.797
	c5.456,9.452,0.992,17.185-9.922,17.185H12.25z"/>
<g>
	<circle fill="#FFFFFF" cx="32.918" cy="33.32" r="3.083"/>
	<polygon fill="#FFFFFF" points="31.605,28.039 29.334,13.904 36.502,13.904 34.272,28.039 	"/>
</g>
<g>
	<path fill="#FFFFFF" d="M12.742,41.696c1.016,0,1.258-0.467,1.258-0.958c0-0.575-0.367-1-1.258-1h-0.051
		c-0.633,0-1.299,0.275-1.707,0.75l-0.426-0.392c0.492-0.6,1.275-0.967,2.107-0.967h0.059c1.441,0.009,1.891,0.825,1.891,1.533
		c0,0.616-0.291,1.133-0.924,1.333c0.725,0.158,1.125,0.7,1.125,1.434c0,0.966-0.701,1.641-2.107,1.649h-0.051
		c-1.033,0-1.85-0.483-2.275-1.217l0.426-0.392c0.342,0.616,1.041,1,1.875,1h0.041c0.9,0,1.475-0.375,1.475-1.108
		c0-0.625-0.4-1.058-1.299-1.058h-0.951v-0.608H12.742z"/>
	<path fill="#FFFFFF" d="M19.615,45.021l-0.025-0.941c-0.316,0.592-0.949,0.991-1.691,0.991c-1.184,0-2.084-0.949-2.084-2.133
		c0-1.183,0.9-2.141,2.084-2.141c0.742,0,1.375,0.408,1.691,0.991l0.025-0.934h0.432v4.166H19.615z M19.473,42.938
		c0-0.899-0.699-1.558-1.533-1.558c-0.824,0-1.523,0.658-1.523,1.558c0,0.9,0.699,1.55,1.523,1.55
		C18.773,44.487,19.473,43.838,19.473,42.938z"/>
	<path fill="#FFFFFF" d="M27.836,45.945v-0.925h-6.24v-4.166h0.609v3.591h2.133v-3.591h0.607v3.591h2.133v-3.591h0.609v3.591h0.75
		v1.5H27.836z"/>
	<path fill="#FFFFFF" d="M32.652,45.021v-3.149l-2.775,3.149H29.51v-4.166h0.609v3.149l2.773-3.149h0.359v4.166H32.652z"/>
	<path fill="#FFFFFF" d="M36.459,45.021H35.85V41.43h-1.523v-0.575h3.656v0.575h-1.523V45.021z"/>
	<path fill="#FFFFFF" d="M42.508,45.021l-0.025-0.941c-0.316,0.592-0.949,0.991-1.691,0.991c-1.184,0-2.084-0.949-2.084-2.133
		c0-1.183,0.9-2.141,2.084-2.141c0.742,0,1.375,0.408,1.691,0.991l0.025-0.934h0.432v4.166H42.508z M42.365,42.938
		c0-0.899-0.699-1.558-1.533-1.558c-0.824,0-1.523,0.658-1.523,1.558c0,0.9,0.699,1.55,1.523,1.55
		C41.666,44.487,42.365,43.838,42.365,42.938z"/>
	<path fill="#FFFFFF" d="M51.162,42.938c0,1.184-0.957,2.133-2.141,2.133s-2.133-0.949-2.133-2.133c0-1.183,0.949-2.141,2.133-2.141
		S51.162,41.755,51.162,42.938z M47.488,42.938c0,0.9,0.699,1.55,1.525,1.55c0.832,0,1.533-0.649,1.533-1.55
		c0-0.899-0.701-1.558-1.533-1.558C48.188,41.38,47.488,42.038,47.488,42.938z"/>
	<path fill="#FFFFFF" d="M54.002,45.021h-0.607V41.43h-1.525v-0.575h3.658v0.575h-1.525V45.021z"/>
	<path fill="#FFFFFF" d="M16.291,52.021V48.43h-2.566v3.591h-0.609v-4.166h3.775v4.166H16.291z"/>
	<path fill="#FFFFFF" d="M22.463,49.938c0,1.184-0.957,2.133-2.141,2.133s-2.133-0.949-2.133-2.133c0-1.183,0.949-2.141,2.133-2.141
		S22.463,48.755,22.463,49.938z M18.789,49.938c0,0.9,0.699,1.55,1.525,1.55c0.832,0,1.533-0.649,1.533-1.55
		c0-0.899-0.701-1.558-1.533-1.558C19.488,48.38,18.789,49.038,18.789,49.938z"/>
	<path fill="#FFFFFF" d="M27.371,52.945v-0.925h-3.592v0.925h-0.607v-1.5h0.566l1.648-3.591h0.367l1.65,3.591h0.566v1.5H27.371z
		 M24.363,51.445h2.424l-1.217-2.657L24.363,51.445z"/>
	<path fill="#FFFFFF" d="M33.444,52.945v-0.925h-3.592v0.925h-0.607v-1.5h0.566l1.648-3.591h0.367l1.65,3.591h0.566v1.5H33.444z
		 M30.437,51.445h2.424l-1.217-2.657L30.437,51.445z"/>
	<path fill="#FFFFFF" d="M38.759,49.013c0.133,0.325,0.158,0.8,0.074,1.066h-3.449c0,0.9,0.658,1.434,1.566,1.441
		c0.541,0,1.033-0.166,1.441-0.45l0.324,0.367c-0.457,0.358-1.049,0.633-1.766,0.633c-1.291-0.008-2.184-0.875-2.184-2.133
		c0-1.183,0.842-2.141,2.117-2.141C37.8,47.797,38.458,48.279,38.759,49.013z M35.409,49.671h2.875
		c0.008-0.142-0.033-0.333-0.092-0.475c-0.209-0.5-0.676-0.842-1.309-0.842C36.042,48.354,35.45,48.954,35.409,49.671z"/>
	<path fill="#FFFFFF" d="M40.274,52.021h-0.641l1.916-4.166h0.367l1.924,4.166h-0.643l-1.465-3.232L40.274,52.021z"/>
	<path fill="#FFFFFF" d="M48.688,49.938c0,1.184-0.957,2.133-2.141,2.133s-2.133-0.949-2.133-2.133c0-1.183,0.949-2.141,2.133-2.141
		S48.688,48.755,48.688,49.938z M45.015,49.938c0,0.9,0.699,1.55,1.525,1.55c0.832,0,1.533-0.649,1.533-1.55
		c0-0.899-0.701-1.558-1.533-1.558C45.714,48.38,45.015,49.038,45.015,49.938z"/>
	<path fill="#FFFFFF" d="M52.362,50.971c-0.383-0.6-0.533-0.808-1.133-0.808h-0.633v1.857h-0.609v-4.166h0.609v1.725h0.541
		c0.6,0,0.75-0.208,1.133-0.808l0.6-0.917h0.684l-0.783,1.184c-0.275,0.408-0.482,0.699-0.75,0.816
		c0.324,0.092,0.541,0.392,0.842,0.85l0.857,1.316h-0.674L52.362,50.971z"/>
</g>
</svg>
