<?xml version="1.0" encoding="utf-8"?>
<!-- Generator: Adobe Illustrator 20.1.0, SVG Export Plug-In . SVG Version: 6.00 Build 0)  -->
<svg version="1.1" id="Слой_1" xmlns="http://www.w3.org/2000/svg" xmlns:xlink="http://www.w3.org/1999/xlink" x="0px" y="0px"
	 viewBox="0 0 22.1 29.6" style="enable-background:new 0 0 22.1 29.6;" xml:space="preserve">
<path d="M22,24.6V12.4h-2.4V8.6C19.6,3.9,15.8,0,11,0S2.4,3.9,2.4,8.6v3.8H0v12.1c0,0.1,0,0.2,0,0.3s0,0.2,0,0.3l0.4,1.2
	C1.8,28.6,6,29.6,11,29.6c5,0,9.2-1.1,10.6-3.2l0.4-1.2c0-0.1,0-0.2,0-0.3S22,24.7,22,24.6z M12,20v3.2c0,0.6-0.4,1-1,1
	c-0.6,0-1-0.4-1-1V20c-0.7-0.4-1.2-1.1-1.2-2c0-1.2,1-2.2,2.2-2.2s2.2,1,2.2,2.2C13.3,18.9,12.8,19.6,12,20z M16.6,12.4H5.4V8.6
	C5.4,5.5,7.9,3,11,3s5.6,2.5,5.6,5.6L16.6,12.4L16.6,12.4z"/>
</svg>
