<?xml version="1.0" encoding="utf-8"?>
<!-- Generator: Adobe Illustrator 15.1.0, SVG Export Plug-In . SVG Version: 6.00 Build 0)  -->
<!DOCTYPE svg PUBLIC "-//W3C//DTD SVG 1.1//EN" "http://www.w3.org/Graphics/SVG/1.1/DTD/svg11.dtd">
<svg version="1.1" id="Слой_1" xmlns="http://www.w3.org/2000/svg" xmlns:xlink="http://www.w3.org/1999/xlink" x="0px" y="0px"
	 width="58.833px" height="58.833px" viewBox="0 0 58.833 58.833" enable-background="new 0 0 58.833 58.833" xml:space="preserve">
<circle fill="#B11331" cx="29.417" cy="29.416" r="29.417"/>
<g>
	<g>
		<path fill="#FFFFFF" d="M21.833,24.917c-3.814,0-6.917-3.103-6.917-6.917s3.103-6.917,6.917-6.917S28.75,14.186,28.75,18
			S25.647,24.917,21.833,24.917z M21.833,14.083c-2.16,0-3.917,1.757-3.917,3.917s1.757,3.917,3.917,3.917S25.75,20.16,25.75,18
			S23.993,14.083,21.833,14.083z"/>
	</g>
	<g>
		<path fill="#FFFFFF" d="M37.001,47.75c-3.814,0-6.918-3.103-6.918-6.917c0-3.813,3.104-6.916,6.918-6.916
			c3.813,0,6.916,3.103,6.916,6.916C43.917,44.647,40.813,47.75,37.001,47.75z M37.001,36.917c-2.16,0-3.918,1.757-3.918,3.916
			c0,2.16,1.758,3.917,3.918,3.917c2.158,0,3.916-1.757,3.916-3.917C40.917,38.674,39.159,36.917,37.001,36.917z"/>
	</g>
	<g>
		<path fill="#FFFFFF" d="M21.25,40.083c-0.362,0-0.725-0.13-1.013-0.394c-0.611-0.56-0.652-1.509-0.093-2.119l17.554-19.167
			c0.561-0.611,1.512-0.651,2.119-0.093c0.611,0.56,0.654,1.508,0.094,2.119L22.356,39.596
			C22.061,39.919,21.656,40.083,21.25,40.083z"/>
	</g>
</g>
</svg>
