<svg xmlns="http://www.w3.org/2000/svg" viewBox="0 0 24.33 24.33"><defs><style>.cls-1{fill:#3e7a4e;}.cls-2{fill:#fafafa;}</style></defs><title>icon-whatsapp</title><g id="Слой_2" data-name="Слой 2"><g id="Слой_1-2" data-name="Слой 1"><g id="Capa_1" data-name="Capa 1"><path class="cls-1" d="M12.17,0h0A12.16,12.16,0,0,0,2.32,19.3L.8,23.82l4.68-1.49A12.16,12.16,0,1,0,12.17,0Z"/><path class="cls-2" d="M18.55,16.43a3,3,0,0,1-2.07,1.49c-.55.12-1.27.21-3.7-.8a13.26,13.26,0,0,1-5.26-4.65A6,6,0,0,1,6.26,9.29,3.37,3.37,0,0,1,7.34,6.72a1.54,1.54,0,0,1,1.08-.38h.35c.31,0,.47,0,.67.52s.88,2.13,1,2.29a.63.63,0,0,1,0,.57,1.81,1.81,0,0,1-.34.49c-.16.18-.3.32-.46.51s-.3.35-.12.66a9.44,9.44,0,0,0,1.72,2.13A7.78,7.78,0,0,0,13.71,15a.67.67,0,0,0,.75-.12,12.83,12.83,0,0,0,.83-1.09.59.59,0,0,1,.76-.23c.28.1,1.8.84,2.1,1s.52.23.59.36A2.65,2.65,0,0,1,18.55,16.43Z"/></g></g></g></svg>