<?xml version="1.0" encoding="utf-8"?>
<!-- Generator: Adobe Illustrator 15.1.0, SVG Export Plug-In . SVG Version: 6.00 Build 0)  -->
<!DOCTYPE svg PUBLIC "-//W3C//DTD SVG 1.1//EN" "http://www.w3.org/Graphics/SVG/1.1/DTD/svg11.dtd">
<svg version="1.1" id="Слой_1" xmlns="http://www.w3.org/2000/svg" xmlns:xlink="http://www.w3.org/1999/xlink" x="0px" y="0px"
	 width="50.815px" height="58.593px" viewBox="0 0 50.815 58.593" enable-background="new 0 0 50.815 58.593" xml:space="preserve">
<g>
	<polygon points="0,43.883 0.073,14.586 25.481,0 50.815,14.711 50.741,44.007 25.334,58.593 	"/>
</g>
<g>
	<g>
		<path fill="#FFFFFF" d="M9.751,21.255c-0.276,0-0.5-0.224-0.5-0.5v-7.5c0-0.276,0.224-0.5,0.5-0.5s0.5,0.224,0.5,0.5v7.5
			C10.251,21.031,10.027,21.255,9.751,21.255z"/>
	</g>
	<g>
		<path fill="#FFFFFF" d="M24.688,21.255c-0.276,0-0.5-0.224-0.5-0.5v-7.5c0-0.276,0.224-0.5,0.5-0.5s0.5,0.224,0.5,0.5v7.5
			C25.188,21.031,24.965,21.255,24.688,21.255z"/>
	</g>
	<g>
		<path fill="#FFFFFF" d="M14.437,17.456c0-1.016,0.104-1.833,0.313-2.452s0.52-1.097,0.932-1.433s0.931-0.504,1.556-0.504
			c0.461,0,0.865,0.093,1.213,0.278s0.635,0.453,0.861,0.803s0.404,0.775,0.533,1.277s0.193,1.179,0.193,2.03
			c0,1.008-0.104,1.821-0.311,2.44s-0.517,1.098-0.929,1.436s-0.933,0.507-1.562,0.507c-0.828,0-1.479-0.297-1.951-0.891
			C14.72,20.233,14.437,19.069,14.437,17.456z M15.521,17.456c0,1.41,0.165,2.349,0.495,2.815s0.737,0.7,1.222,0.7
			s0.892-0.234,1.222-0.703s0.495-1.406,0.495-2.813c0-1.414-0.165-2.354-0.495-2.818s-0.741-0.697-1.233-0.697
			c-0.484,0-0.871,0.205-1.16,0.615C15.702,15.079,15.521,16.046,15.521,17.456z"/>
	</g>
	<g>
		<path fill="#FFFFFF" d="M28.874,17.456c0-1.016,0.104-1.833,0.313-2.452s0.52-1.097,0.932-1.433s0.931-0.504,1.556-0.504
			c0.461,0,0.865,0.093,1.213,0.278s0.635,0.453,0.861,0.803s0.404,0.775,0.533,1.277s0.193,1.179,0.193,2.03
			c0,1.008-0.104,1.821-0.311,2.44s-0.517,1.098-0.929,1.436s-0.933,0.507-1.562,0.507c-0.828,0-1.479-0.297-1.951-0.891
			C29.157,20.233,28.874,19.069,28.874,17.456z M29.958,17.456c0,1.41,0.165,2.349,0.495,2.815s0.737,0.7,1.222,0.7
			s0.892-0.234,1.222-0.703s0.495-1.406,0.495-2.813c0-1.414-0.165-2.354-0.495-2.818s-0.741-0.697-1.233-0.697
			c-0.484,0-0.871,0.205-1.16,0.615C30.14,15.079,29.958,16.046,29.958,17.456z"/>
	</g>
	<g>
		<path fill="#FFFFFF" d="M36.562,17.456c0-1.016,0.104-1.833,0.313-2.452s0.52-1.097,0.932-1.433s0.931-0.504,1.556-0.504
			c0.461,0,0.865,0.093,1.213,0.278s0.635,0.453,0.861,0.803s0.404,0.775,0.533,1.277s0.193,1.179,0.193,2.03
			c0,1.008-0.104,1.821-0.311,2.44s-0.517,1.098-0.929,1.436s-0.933,0.507-1.562,0.507c-0.828,0-1.479-0.297-1.951-0.891
			C36.845,20.233,36.562,19.069,36.562,17.456z M37.646,17.456c0,1.41,0.165,2.349,0.495,2.815s0.737,0.7,1.222,0.7
			s0.892-0.234,1.222-0.703s0.495-1.406,0.495-2.813c0-1.414-0.165-2.354-0.495-2.818s-0.741-0.697-1.233-0.697
			c-0.484,0-0.871,0.205-1.16,0.615C37.827,15.079,37.646,16.046,37.646,17.456z"/>
	</g>
	<g>
		<path fill="#FFFFFF" d="M9.751,45.255c-0.276,0-0.5-0.224-0.5-0.5v-7.5c0-0.276,0.224-0.5,0.5-0.5s0.5,0.224,0.5,0.5v7.5
			C10.251,45.031,10.027,45.255,9.751,45.255z"/>
	</g>
	<g>
		<path fill="#FFFFFF" d="M24.688,45.255c-0.276,0-0.5-0.224-0.5-0.5v-7.5c0-0.276,0.224-0.5,0.5-0.5s0.5,0.224,0.5,0.5v7.5
			C25.188,45.031,24.965,45.255,24.688,45.255z"/>
	</g>
	<g>
		<path fill="#FFFFFF" d="M14.437,41.456c0-1.016,0.104-1.833,0.313-2.452s0.52-1.097,0.932-1.433s0.931-0.504,1.556-0.504
			c0.461,0,0.865,0.093,1.213,0.278s0.635,0.453,0.861,0.803s0.404,0.775,0.533,1.277s0.193,1.179,0.193,2.03
			c0,1.008-0.104,1.821-0.311,2.44s-0.517,1.098-0.929,1.436s-0.933,0.507-1.562,0.507c-0.828,0-1.479-0.297-1.951-0.891
			C14.72,44.233,14.437,43.069,14.437,41.456z M15.521,41.456c0,1.41,0.165,2.349,0.495,2.815s0.737,0.7,1.222,0.7
			s0.892-0.234,1.222-0.703s0.495-1.406,0.495-2.813c0-1.414-0.165-2.354-0.495-2.818s-0.741-0.697-1.233-0.697
			c-0.484,0-0.871,0.205-1.16,0.615C15.702,39.079,15.521,40.046,15.521,41.456z"/>
	</g>
	<g>
		<path fill="#FFFFFF" d="M28.874,41.456c0-1.016,0.104-1.833,0.313-2.452s0.52-1.097,0.932-1.433s0.931-0.504,1.556-0.504
			c0.461,0,0.865,0.093,1.213,0.278s0.635,0.453,0.861,0.803s0.404,0.775,0.533,1.277s0.193,1.179,0.193,2.03
			c0,1.008-0.104,1.821-0.311,2.44s-0.517,1.098-0.929,1.436s-0.933,0.507-1.562,0.507c-0.828,0-1.479-0.297-1.951-0.891
			C29.157,44.233,28.874,43.069,28.874,41.456z M29.958,41.456c0,1.41,0.165,2.349,0.495,2.815s0.737,0.7,1.222,0.7
			s0.892-0.234,1.222-0.703s0.495-1.406,0.495-2.813c0-1.414-0.165-2.354-0.495-2.818s-0.741-0.697-1.233-0.697
			c-0.484,0-0.871,0.205-1.16,0.615C30.14,39.079,29.958,40.046,29.958,41.456z"/>
	</g>
	<g>
		<path fill="#FFFFFF" d="M36.562,41.456c0-1.016,0.104-1.833,0.313-2.452s0.52-1.097,0.932-1.433s0.931-0.504,1.556-0.504
			c0.461,0,0.865,0.093,1.213,0.278s0.635,0.453,0.861,0.803s0.404,0.775,0.533,1.277s0.193,1.179,0.193,2.03
			c0,1.008-0.104,1.821-0.311,2.44s-0.517,1.098-0.929,1.436s-0.933,0.507-1.562,0.507c-0.828,0-1.479-0.297-1.951-0.891
			C36.845,44.233,36.562,43.069,36.562,41.456z M37.646,41.456c0,1.41,0.165,2.349,0.495,2.815s0.737,0.7,1.222,0.7
			s0.892-0.234,1.222-0.703s0.495-1.406,0.495-2.813c0-1.414-0.165-2.354-0.495-2.818s-0.741-0.697-1.233-0.697
			c-0.484,0-0.871,0.205-1.16,0.615C37.827,39.079,37.646,40.046,37.646,41.456z"/>
	</g>
	<g>
		<path fill="#FFFFFF" d="M41.063,33.255c-0.276,0-0.5-0.224-0.5-0.5v-7.5c0-0.276,0.224-0.5,0.5-0.5s0.5,0.224,0.5,0.5v7.5
			C41.563,33.031,41.34,33.255,41.063,33.255z"/>
	</g>
	<g>
		<path fill="#FFFFFF" d="M26.126,33.255c-0.276,0-0.5-0.224-0.5-0.5v-7.5c0-0.276,0.224-0.5,0.5-0.5s0.5,0.224,0.5,0.5v7.5
			C26.626,33.031,26.402,33.255,26.126,33.255z"/>
	</g>
	<g>
		<path fill="#FFFFFF" d="M35.528,32.948c-0.473,0.594-1.123,0.891-1.951,0.891c-0.629,0-1.149-0.169-1.562-0.507
			s-0.722-0.816-0.929-1.436s-0.311-1.433-0.311-2.44c0-0.852,0.064-1.528,0.193-2.03s0.307-0.928,0.533-1.277
			s0.514-0.617,0.861-0.803s0.752-0.278,1.213-0.278c0.625,0,1.144,0.168,1.556,0.504s0.723,0.813,0.932,1.433
			s0.313,1.437,0.313,2.452C36.378,31.069,36.095,32.233,35.528,32.948z M34.749,26.556c-0.289-0.41-0.676-0.615-1.16-0.615
			c-0.492,0-0.903,0.232-1.233,0.697s-0.495,1.404-0.495,2.818c0,1.406,0.165,2.344,0.495,2.813s0.737,0.703,1.222,0.703
			s0.892-0.233,1.222-0.7s0.495-1.405,0.495-2.815S35.112,27.079,34.749,26.556z"/>
	</g>
	<g>
		<path fill="#FFFFFF" d="M21.091,32.948c-0.473,0.594-1.123,0.891-1.951,0.891c-0.629,0-1.149-0.169-1.562-0.507
			s-0.722-0.816-0.929-1.436s-0.311-1.433-0.311-2.44c0-0.852,0.064-1.528,0.193-2.03s0.307-0.928,0.533-1.277
			s0.514-0.617,0.861-0.803s0.752-0.278,1.213-0.278c0.625,0,1.144,0.168,1.556,0.504s0.723,0.813,0.932,1.433
			s0.313,1.437,0.313,2.452C21.94,31.069,21.657,32.233,21.091,32.948z M20.312,26.556c-0.289-0.41-0.676-0.615-1.16-0.615
			c-0.492,0-0.903,0.232-1.233,0.697s-0.495,1.404-0.495,2.818c0,1.406,0.165,2.344,0.495,2.813s0.737,0.703,1.222,0.703
			s0.892-0.233,1.222-0.7s0.495-1.405,0.495-2.815S20.675,27.079,20.312,26.556z"/>
	</g>
	<g>
		<path fill="#FFFFFF" d="M13.403,32.948c-0.473,0.594-1.123,0.891-1.951,0.891c-0.629,0-1.149-0.169-1.562-0.507
			s-0.722-0.816-0.929-1.436s-0.311-1.433-0.311-2.44c0-0.852,0.064-1.528,0.193-2.03s0.307-0.928,0.533-1.277
			s0.514-0.617,0.861-0.803s0.752-0.278,1.213-0.278c0.625,0,1.144,0.168,1.556,0.504s0.723,0.813,0.932,1.433
			s0.313,1.437,0.313,2.452C14.253,31.069,13.97,32.233,13.403,32.948z M12.624,26.556c-0.289-0.41-0.676-0.615-1.16-0.615
			c-0.492,0-0.903,0.232-1.233,0.697s-0.495,1.404-0.495,2.818c0,1.406,0.165,2.344,0.495,2.813s0.737,0.703,1.222,0.703
			s0.892-0.233,1.222-0.7s0.495-1.405,0.495-2.815S12.987,27.079,12.624,26.556z"/>
	</g>
</g>
</svg>
