<svg xmlns="http://www.w3.org/2000/svg" viewBox="0 0 27 16.17"><title>icon-location</title><g id="Слой_2" data-name="Слой 2"><g id="Слой_1-2" data-name="Слой 1"><polygon points="25.83 14.5 25.83 9.5 22.83 9.5 22.83 11.33 21.67 11.33 21.67 7.83 20.33 7.83 20.33 5.33 19.67 5.33 19.67 7.83 18.33 7.83 18.33 9.17 17.17 9.17 17.17 4.83 13.33 8.83 13.33 1.33 12.17 1.33 12.17 0 11.33 0 11.33 1.33 9.83 1.33 9.83 5.33 7.83 5.33 7.83 4.17 7 4.17 7 3.17 6 3.17 6 0.33 5.17 0.33 5.17 3.17 4.17 3.17 4.17 4.17 3.17 4.17 3.17 5.33 1.67 5.33 1.67 14.83 0 16.17 27 16.17 27 14.5 25.83 14.5"/></g></g></svg>