<svg width="0" height="0" class="hidden">
    <symbol version="1.1" id="icon-cart" xmlns="http://www.w3.org/2000/svg" xmlns:xlink="http://www.w3.org/1999/xlink" x="0px" y="0px" enable-background="new 0 0 27.63 23.19" xml:space="preserve" viewBox="0 0 27.63 23.19">
        <path fill="currentColor" d="M7.25,15.69a.5.5,0,0,0,.5.5l15.75-1.5a.5.5,0,0,0,.5-.5L27.63,2.94a.5.5,0,0,0-.5-.5H6.88V.5a.5.5,0,0,0-.5-.5H.5A.5.5,0,0,0,0,.5V2.63a.5.5,0,0,0,.5.5H4.42Z"></path>
        <circle fill="currentColor" cx="7.63" cy="20.69" r="2.5"></circle>
        <circle fill="currentColor" cx="22" cy="20.69" r="2.5"></circle>
    </symbol>

    <symbol version="1.1" id="icon-compare" xmlns="http://www.w3.org/2000/svg" xmlns:xlink="http://www.w3.org/1999/xlink" x="0px" y="0px" enable-background="new 0 0 28.64 24.48" xml:space="preserve" viewBox="0 0 28.64 24.48">
        <path fill="currentColor" d="M3,24.48V11.7A8.7,8.7,0,0,1,19.72,8.36a8.58,8.58,0,0,0-8.23,8.56v7.57h3V16.91a5.58,5.58,0,0,1,5.57-5.57l.31,0c0,.11,0,.23,0,.34V24.48h3v-12a5.56,5.56,0,0,1,2.25,4.46v7.57h3V16.91a8.58,8.58,0,0,0-5.61-8A11.69,11.69,0,0,0,0,11.7V24.48Z"></path>
    </symbol>

    <symbol version="1.1" id="icon-compare-plus" xmlns="http://www.w3.org/2000/svg" xmlns:xlink="http://www.w3.org/1999/xlink" x="0px" y="0px" enable-background="new 0 0 607.14 626.53" xml:space="preserve" viewBox="0 0 607.14 626.53">
        <path fill="currentColor" d="M54.6,626V393.4a158.33,158.33,0,0,1,304.29-60.79A156.15,156.15,0,0,0,209.11,488.4V626.17h54.6v-138A101.55,101.55,0,0,1,365.08,386.85h5.64V626h54.6V407.59a101.19,101.19,0,0,1,40.95,81.17V626.53h54.6V488.22a156.15,156.15,0,0,0-102.1-145.6c-29.3-113.79-145.3-182.27-259.08-153A212.75,212.75,0,0,0,0,393.4V626H54.6Z"/>
        <path fill="currentColor" d="M579.14,75h-47V28a28,28,0,0,0-56,0V75h-47a28,28,0,0,0,0,56h47v47a28,28,0,0,0,56,0V131h47a28,28,0,0,0,0-56Z"/>
    </symbol>

    <symbol version="1.1" id="icon-angle-left" xmlns="http://www.w3.org/2000/svg" xmlns:xlink="http://www.w3.org/1999/xlink" x="0px" y="0px" enable-background="new 0 0 1024 1024" xml:space="preserve" viewBox="0 0 1024 1024">
        <path fill="currentColor" d="M609 137l46 46-329 329 329 329-46 46-352-352-22-23 22-23z"></path>
    </symbol>

    <symbol version="1.1" id="icon-angle-right" xmlns="http://www.w3.org/2000/svg" xmlns:xlink="http://www.w3.org/1999/xlink" x="0px" y="0px" enable-background="new 0 0 1024 1024" xml:space="preserve" viewBox="0 0 1024 1024">
        <path fill="currentColor" d="M415 137l352 352 22 23-22 23-352 352-46-46 329-329-329-329z"></path>
    </symbol>

    <symbol version="1.1" id="icon-angle-right" xmlns="http://www.w3.org/2000/svg" xmlns:xlink="http://www.w3.org/1999/xlink" x="0px" y="0px" enable-background="new 0 0 50 50" xml:space="preserve" viewBox="0 0 50 50">
        <path fill="currentColor" d="M37.516,18.034l-5.185-5.185c-0.195-0.196-0.53-0.177-0.749,0.042L21.391,23.082l-9.624-9.624
        c-0.195-0.196-0.512-0.196-0.707,0l-5.185,5.185c-0.196,0.195-0.196,0.512,0,0.707l9.967,9.967c0.003,0.004,0.004,0.009,0.008,0.013
        l5.185,5.186c0.195,0.195,0.53,0.177,0.749-0.042l15.69-15.69C37.693,18.564,37.712,18.229,37.516,18.034z"></path>
    </symbol>

    <symbol version="1.1" id="icon-angle-down-solid" xmlns="http://www.w3.org/2000/svg" xmlns:xlink="http://www.w3.org/1999/xlink" x="0px" y="0px" enable-background="new 0 0 50 50" xml:space="preserve" viewBox="0 0 50 50">
        <path fill="currentColor" d="M37.516,18.034l-5.185-5.185c-0.195-0.196-0.53-0.177-0.749,0.042L21.391,23.082l-9.624-9.624
        c-0.195-0.196-0.512-0.196-0.707,0l-5.185,5.185c-0.196,0.195-0.196,0.512,0,0.707l9.967,9.967c0.003,0.004,0.004,0.009,0.008,0.013
        l5.185,5.186c0.195,0.195,0.53,0.177,0.749-0.042l15.69-15.69C37.693,18.564,37.712,18.229,37.516,18.034z"></path>
    </symbol>
  
    <symbol version="1.1" id="icon-location" xmlns="http://www.w3.org/2000/svg" xmlns:xlink="http://www.w3.org/1999/xlink" x="0px" y="0px" enable-background="new 0 0 27 16.17" xml:space="preserve" viewBox="0 0 27 16.17">
        <polygon fill="currentColor" points="25.83 14.5 25.83 9.5 22.83 9.5 22.83 11.33 21.67 11.33 21.67 7.83 20.33 7.83 20.33 5.33 19.67 5.33 19.67 7.83 18.33 7.83 18.33 9.17 17.17 9.17 17.17 4.83 13.33 8.83 13.33 1.33 12.17 1.33 12.17 0 11.33 0 11.33 1.33 9.83 1.33 9.83 5.33 7.83 5.33 7.83 4.17 7 4.17 7 3.17 6 3.17 6 0.33 5.17 0.33 5.17 3.17 4.17 3.17 4.17 4.17 3.17 4.17 3.17 5.33 1.67 5.33 1.67 14.83 0 16.17 27 16.17 27 14.5 25.83 14.5"></polygon>
    </symbol>

    <symbol version="1.1" id="icon-search" xmlns="http://www.w3.org/2000/svg" xmlns:xlink="http://www.w3.org/1999/xlink" x="0px" y="0px" enable-background="new 0 0 24.44 25.13" xml:space="preserve" viewBox="0 0 24.44 25.13">
        <path fill="currentColor" d="M24,22.56l-5.23-5.23a10.61,10.61,0,1,0-2.22,2l5.33,5.33A1.5,1.5,0,1,0,24,22.56Zm-21-12a7.59,7.59,0,1,1,7.59,7.59A7.6,7.6,0,0,1,3,10.59Z"></path>
    </symbol>

    <symbol xmlns="http://www.w3.org/2000/svg" viewBox="0 0 130.3 130.2" id="icon-catalog">
        <path fill="currentColor" d="M65.1,0C29.2,0,0,29.2,0,65.1s29.2,65.1,65.1,65.1s65.1-29.2,65.1-65.1S101.1,0,65.1,0z M71.1,63.2V83c0,3.3-2.7,6-6,6s-6-2.7-6-6V63.2c-3.9-2.1-6.6-6.3-6.6-11.1c0-7,5.7-12.6,12.6-12.6c7,0,12.6,5.7,12.6,12.6C77.8,56.9,75.1,61.1,71.1,63.2z"/>
    </symbol>

    <symbol xmlns="http://www.w3.org/2000/svg" viewBox="0 0 22.98 24.11" id="icon-catalog-furniture">
        <circle fill="currentColor" cx="5.18" cy="6.46" r="1"></circle>
        <circle fill="currentColor" cx="4.05" cy="12.34" r="1"></circle>
        <circle fill="currentColor" cx="4.99" cy="17.52" r="1"></circle>
        <path fill="currentColor" d="M20.68,1.72H15.55a2.28,2.28,0,0,0-1,.26V1.65A1.62,1.62,0,0,0,12.93,0H10.17A1.62,1.62,0,0,0,8.59,1.65v.4a2.27,2.27,0,0,0-1.16-.33H2.3A2.3,2.3,0,0,0,0,4V20.46a2.3,2.3,0,0,0,2.3,2.3H7.43a2.27,2.27,0,0,0,1.16-.33v0a1.62,1.62,0,0,0,1.59,1.65h2.75a1.62,1.62,0,0,0,1.58-1.61,2.27,2.27,0,0,0,1,.26h5.13a2.3,2.3,0,0,0,2.3-2.3V4A2.3,2.3,0,0,0,20.68,1.72ZM8.43,20.46a1,1,0,0,1-1,1H2.3a1,1,0,0,1-1-1V4a1,1,0,0,1,1-1H7.43a1,1,0,0,1,1,1Zm1.46-10h3.33v2.76H9.89Zm3.33-1.3H9.89V6.49h3.33ZM9.89,14.55h3.33v2.7H9.89ZM10.17,1.3h2.75a.33.33,0,0,1,.29.35V5.19H9.89V1.65A.33.33,0,0,1,10.17,1.3Zm2.75,21.51H10.17a.33.33,0,0,1-.29-.35V18.55h3.33v3.91A.32.32,0,0,1,12.93,22.81Zm8.75-2.35a1,1,0,0,1-1,1H15.55a1,1,0,0,1-1-1V4a1,1,0,0,1,1-1h5.13a1,1,0,0,1,1,1Z"></path>
        <circle fill="currentColor" cx="17.8" cy="6.46" r="1"></circle>
        <circle fill="currentColor" cx="18.93" cy="12.34" r="1"></circle>
        <circle fill="currentColor" cx="17.99" cy="17.52" r="1"></circle>
    </symbol>
    
    <symbol xmlns="http://www.w3.org/2000/svg" viewBox="0 0 17.52 24.94" id="icon-catalog-handle">
        <path fill="currentColor" d="M16.61,7.27H7.39a1.81,1.81,0,1,0,0,1.81h9.22a.91.91,0,0,0,0-1.81Z"></path>
        <path fill="currentColor" d="M5.75,4.36a3.81,3.81,0,0,1,2.46.91h3.11V5a5,5,0,0,0-5-5H5A5,5,0,0,0,0,5V19.94a5,5,0,0,0,5,5H6.31a5,5,0,0,0,5-5V11.08H8.21A3.81,3.81,0,1,1,5.75,4.36ZM5.66,15.94a1.37,1.37,0,0,1,.94,2.38V20a.94.94,0,1,1-1.88,0V18.31a1.37,1.37,0,0,1,.94-2.38Z"></path>
    </symbol>

    <symbol xmlns="http://www.w3.org/2000/svg" viewBox="0 0 20.43 21.13" id="icon-catalog-keys">
        <path fill="currentColor" d="M18.42,0H11.55a2,2,0,0,0-2,2V8.88a2,2,0,0,0,2,2H13v2.19h1a.5.5,0,0,1,.5.5v.19a.5.5,0,0,1-.5.5H13v1h1a.5.5,0,0,1,.5.5v.19a.5.5,0,0,1-.5.5H13V19h0a.41.41,0,0,0,.11.36L14.75,21a.42.42,0,0,0,.6,0L17,19.36a.41.41,0,0,0,.11-.36h0V10.88h1.3a2,2,0,0,0,2-2V2A2,2,0,0,0,18.42,0ZM15,2.31a1,1,0,1,1-1,1A1,1,0,0,1,15,2.31Z"></path>
        <path fill="currentColor" d="M8.13,1.67,4.9,4.9a2,2,0,0,0,0,2.83l1,1L4.37,10.29l.72.72a.5.5,0,0,1,0,.71L5,11.85a.5.5,0,0,1-.71,0l-.72-.72-.71.71.72.72a.5.5,0,0,1,0,.71l-.13.13a.5.5,0,0,1-.71,0L2,12.68.17,14.49h0a.41.41,0,0,0-.18.33v2.33a.42.42,0,0,0,.42.42H2.75a.41.41,0,0,0,.33-.18h0l5-5V1.67Z"></path>
    </symbol>

    <symbol xmlns="http://www.w3.org/2000/svg" viewBox="0 0 25.56 25.38" id="icon-catalog-lock">
        <path fill="currentColor" d="M25.56,11.38V7.5H20.44V2a2,2,0,0,0-2-2H2A2,2,0,0,0,0,2V23.38a2,2,0,0,0,2,2H18.44a2,2,0,0,0,2-2V17.5h5.13V13.63H20.44V11.38ZM3.84,22.88a1.34,1.34,0,1,1,1.34-1.34A1.34,1.34,0,0,1,3.84,22.88Zm0-18.06A1.34,1.34,0,1,1,5.19,3.47,1.34,1.34,0,0,1,3.84,4.81Zm9.78,10H11.56v0a1.2,1.2,0,1,1-2.41,0v0H7.09a.78.78,0,0,1,0-1.56H9.16v0a1.2,1.2,0,1,1,2.41,0v0h2.06a.78.78,0,0,1,0,1.56Zm3.09,8.09a1.34,1.34,0,1,1,1.34-1.34A1.34,1.34,0,0,1,16.72,22.88Zm0-18.06a1.34,1.34,0,1,1,1.34-1.34A1.34,1.34,0,0,1,16.72,4.81Z"></path>
    </symbol>

    <symbol xmlns="http://www.w3.org/2000/svg" viewBox="0 0 26 24.83" id="icon-catalog-master">
        <rect fill="currentColor" y="12.89" width="1" height="4.92"></rect>
        <rect fill="currentColor" x="3" y="11.78" width="1" height="7.13"></rect>
        <path fill="currentColor" d="M25.44,18H15.81a1.56,1.56,0,1,0,0,1.13h9.63a.56.56,0,0,0,0-1.13Z"></path>
        <path fill="currentColor" d="M14.57,22.08A3.56,3.56,0,1,1,17,16h4.17V1a1,1,0,0,0-1-1h-12a1,1,0,0,0-1,1V23.83a1,1,0,0,0,1,1h12a1,1,0,0,0,1-1V21.08H17A3.54,3.54,0,0,1,14.57,22.08ZM17.7,1.79h2v2h-2Zm0,3h2v2h-2Zm0,3h2v2h-2Zm-3-6h2v2h-2Zm0,3h2v2h-2Zm0,3h2v2h-2Zm0,3h2v2h-2Zm-3-9h2v2h-2Zm0,3h2v2h-2Zm0,3h2v2h-2Zm0,3h2v2h-2Zm-1-1h-2v-2h2Zm0-3h-2v-2h2Zm0-3h-2v-2h2Z"></path>
    </symbol>

    <symbol xmlns="http://www.w3.org/2000/svg" viewBox="0 0 65.36 15.88" id="icon-type-1">
        <path fill="currentColor" d="M30.42,7.29a23.89,23.89,0,0,0-3-2.41,3.49,3.49,0,0,0-.66-.46,7.63,7.63,0,0,0-1.6-.09H15a7.94,7.94,0,1,0-1.45,9.23,7.87,7.87,0,0,0,.72-.84c.77.07,1.14.19,2,.22,1.59.05,1.39-.88,1.59-1.37a1,1,0,0,1,1.88-.31c.3.45.06.68.59,1.35a1.34,1.34,0,0,0,1.85.27c.48-.38.39-.91.77-1.51a1,1,0,0,1,1.75-.18c.31.33.21.93,1.11,1.42s1.77-.73,1.77-.73a34.44,34.44,0,0,0,3-2.56A1.7,1.7,0,0,0,30.42,7.29ZM10.08,10.07a2.74,2.74,0,1,1,0-3.87A2.74,2.74,0,0,1,10.08,10.07Z"/>
        <path fill="currentColor" d="M34.77,9.32a34.61,34.61,0,0,0,3,2.56s.94,1.19,1.77.73.8-1.09,1.11-1.42a1,1,0,0,1,1.75.18c.38.6.29,1.13.77,1.51a1.34,1.34,0,0,0,1.85-.27c.53-.67.29-.9.59-1.35a1,1,0,0,1,1.88.31c.2.49,0,1.42,1.59,1.37.84,0,1.2-.15,2-.22a7.77,7.77,0,0,0,.72.84,8,8,0,1,0-1.45-9.23H40.23a7.62,7.62,0,0,0-1.6.09,3.49,3.49,0,0,0-.66.46,23.89,23.89,0,0,0-3,2.41A1.71,1.71,0,0,0,34.77,9.32ZM55.28,6.2a2.74,2.74,0,1,1,0,3.87A2.74,2.74,0,0,1,55.28,6.2Z"/>
        <rect fill="currentColor" x="32.13" y="2.17" width="1" height="11.97"/>
    </symbol>

    <symbol xmlns="http://www.w3.org/2000/svg" viewBox="0 0 46.7 16.2" id="icon-type-2">
        <path fill="currentColor" d="M30.4,7.3c-0.6-0.7-3-2.4-3-2.4s-0.5-0.4-0.7-0.5c-0.4-0.1-1.6-0.1-1.6-0.1L15,4.3c-0.4-0.7-0.8-1.4-1.5-2
            c-3.1-3.1-8.1-3.1-11.2,0c-3.1,3.1-3.1,8.1,0,11.2c3.1,3.1,8.1,3.1,11.2,0c0.3-0.3,0.5-0.6,0.7-0.8c0.8,0.1,1.1,0.2,2,0.2
            c1.6,0.1,1.4-0.9,1.6-1.4c0.4-1.1,1.5-0.9,1.9-0.3c0.3,0.4,0.1,0.7,0.6,1.3c0.6,0.7,1.5,0.6,1.9,0.3c0.5-0.4,0.4-0.9,0.8-1.5
            c0.6-0.9,1.3-0.6,1.7-0.2c0.3,0.3,0.2,0.9,1.1,1.4c0.8,0.5,1.8-0.7,1.8-0.7s2.5-1.9,3-2.6C31.1,8.7,30.7,7.7,30.4,7.3z M10.1,10.1
            c-1.1,1.1-2.8,1.1-3.9,0C5.1,9,5.1,7.3,6.2,6.2c1.1-1.1,2.8-1.1,3.9,0C11.1,7.3,11.1,9,10.1,10.1z"/>
        <rect fill="currentColor" x="33.1" y="2.4" width="1" height="11.97" />
        <path fill="currentColor" d="M43.8,0.4H42c-1.6,0-2.8,1.3-2.8,2.8v2.2h-0.6c-1.6,0-2.8,1.3-2.8,2.8v0.1c0,1.6,1.3,2.8,2.8,2.8h0.6v2.1
            c0,1.6,1.3,2.8,2.8,2.8h1.8c1.6,0,2.8-1.3,2.8-2.8V3.2C46.7,1.7,45.4,0.4,43.8,0.4z"/>
    </symbol>

    <symbol xmlns="http://www.w3.org/2000/svg" viewBox="0 0 59.4 15.9" id="icon-type-3">
        <path fill="currentColor" d="M30.4,7.3c-0.6-0.7-3-2.4-3-2.4s-0.5-0.4-0.7-0.5c-0.4-0.1-1.6-0.1-1.6-0.1L15,4.3c-0.4-0.7-0.8-1.4-1.5-2
            c-3.1-3.1-8.1-3.1-11.2,0c-3.1,3.1-3.1,8.1,0,11.2c3.1,3.1,8.1,3.1,11.2,0c0.3-0.3,0.5-0.6,0.7-0.8c0.8,0.1,1.1,0.2,2,0.2
            c1.6,0.1,1.4-0.9,1.6-1.4c0.4-1.1,1.5-0.9,1.9-0.3c0.3,0.4,0.1,0.7,0.6,1.3c0.6,0.7,1.5,0.6,1.9,0.3c0.5-0.4,0.4-0.9,0.8-1.5
            c0.6-0.9,1.3-0.6,1.7-0.2c0.3,0.3,0.2,0.9,1.1,1.4c0.8,0.5,1.8-0.7,1.8-0.7s2.5-1.9,3-2.6C31.1,8.7,30.7,7.7,30.4,7.3z M10.1,10.1
            c-1.1,1.1-2.8,1.1-3.9,0C5.1,9,5.1,7.3,6.2,6.2c1.1-1.1,2.8-1.1,3.9,0C11.1,7.3,11.1,9,10.1,10.1z"/>
        <rect fill="currentColor" x="33.1" y="2.4" width="1" height="11.97" />
        <path fill="currentColor" d="M59.4,7.8c0,1.3-1.1,2.4-2.4,2.4H39.5c-1.3,0-2.4-1.1-2.4-2.4l0,0c0-1.3,1.1-2.4,2.4-2.4H57C58.3,5.4,59.4,6.5,59.4,7.8
            L59.4,7.8z"/>
    </symbol>

    <symbol xmlns="http://www.w3.org/2000/svg" viewBox="0 0 28.355 27.656" id="icon-key">
        <path fill="currentColor" d="M28.339,1.416C28.256,0.499,26.672,0,26.672,0l-5.333,0.333L11.166,10.99c-0.828-0.269-1.708-0.417-2.625-0.417
        C3.832,10.573,0,14.405,0,19.115s3.832,8.541,8.542,8.541c4.71,0,8.542-3.831,8.542-8.541c0-0.403-0.038-0.797-0.093-1.185
        c0.644-0.534,1.772-1.484,2.431-2.098c1.25-1.167,0.387-1.731,0.167-2.25c-0.479-1.13,0.411-1.817,1.192-1.661
        c0.566,0.113,0.563,0.469,1.474,0.578c0.993,0.119,1.558-0.673,1.62-1.203c0.078-0.656-0.396-0.984-0.563-1.734
        c-0.26-1.165,0.547-1.49,1.188-1.469c0.486,0.017,0.852,0.477,1.922,0.239c1.5-0.333,1.75-2,1.75-2S28.422,2.333,28.339,1.416z
        M8.417,22.781c-1.954,0-3.543-1.589-3.543-3.543s1.589-3.543,3.543-3.543c1.955,0,3.543,1.589,3.543,3.543
        S10.371,22.781,8.417,22.781z"/>
    </symbol>

    <symbol xmlns="http://www.w3.org/2000/svg" viewBox="0 0 8.1 8.1" id="icon-close">
        <path fill="currentColor" d="M5.5,4.1l2.4-2.4c0.4-0.4,0.4-1,0-1.4s-1-0.4-1.4,0L4.1,2.6L1.7,0.3c-0.4-0.4-1-0.4-1.4,0s-0.4,1,0,1.4l2.4,2.4L0.3,6.4
        c-0.4,0.4-0.4,1,0,1.4C0.5,8,0.7,8.1,1,8.1S1.5,8,1.7,7.8l2.4-2.4l2.4,2.4C6.6,8,6.9,8.1,7.1,8.1S7.6,8,7.8,7.8c0.4-0.4,0.4-1,0-1.4
        L5.5,4.1z"/>
    </symbol>

    <symbol xmlns="http://www.w3.org/2000/svg" viewBox="0 0 31.75 31.917" id="icon-grid">
        <rect fill="currentColor" width="13.917" height="13.917"/>
        <rect fill="currentColor" x="17.833" width="13.917" height="13.917"/>
        <rect fill="currentColor" y="18" width="13.917" height="13.917"/>
        <rect fill="currentColor" x="17.833" y="18" width="13.917" height="13.917"/>
    </symbol>

    <symbol xmlns="http://www.w3.org/2000/svg" viewBox="0 0 31.8 31.8" id="icon-list">
        <rect fill="currentColor" y="23.2" width="31.8" height="8.7"/>
        <rect fill="currentColor" y="11.8" width="31.8" height="8.2"/>
        <rect fill="currentColor" width="31.8" height="8.7"/>
    </symbol>

    <symbol xmlns="http://www.w3.org/2000/svg" viewBox="0 0 17.667 14.833" id="icon-filter">
        <path fill="currentColor" d="M0.5,3.167h2.656c0.266,1.143,1.288,2,2.511,2s2.245-0.857,2.511-2h8.989c0.276,0,0.5-0.224,0.5-0.5s-0.224-0.5-0.5-0.5
            H8.208C8.007,0.941,6.949,0,5.667,0s-2.34,0.941-2.542,2.167H0.5c-0.276,0-0.5,0.224-0.5,0.5S0.224,3.167,0.5,3.167z M5.667,1
            C6.54,1,7.25,1.71,7.25,2.583S6.54,4.167,5.667,4.167s-1.583-0.71-1.583-1.583S4.794,1,5.667,1z"/>
        <path fill="currentColor" d="M17.167,11.833H8.208c-0.201-1.226-1.259-2.167-2.541-2.167s-2.34,0.941-2.542,2.167H0.5c-0.276,0-0.5,0.224-0.5,0.5
            s0.224,0.5,0.5,0.5h2.656c0.266,1.144,1.288,2,2.511,2s2.245-0.856,2.511-2h8.989c0.276,0,0.5-0.224,0.5-0.5
            S17.443,11.833,17.167,11.833z M5.667,13.833c-0.873,0-1.583-0.71-1.583-1.583s0.71-1.584,1.583-1.584S7.25,11.377,7.25,12.25
            S6.54,13.833,5.667,13.833z"/>
        <path fill="currentColor" d="M17.167,7h-2.626C14.34,5.774,13.281,4.833,12,4.833S9.66,5.774,9.459,7H0.5C0.224,7,0,7.224,0,7.5S0.224,8,0.5,8h8.989
            c0.266,1.143,1.288,2,2.511,2s2.245-0.857,2.511-2h2.656c0.276,0,0.5-0.224,0.5-0.5S17.443,7,17.167,7z M12,9
                c-0.873,0-1.583-0.71-1.583-1.583c0-0.874,0.71-1.584,1.583-1.584s1.583,0.71,1.583,1.584C13.583,8.29,12.873,9,12,9z"/>
    </symbol>

    <symbol xmlns="http://www.w3.org/2000/svg" viewBox="0 0 22.1 29.6" id="icon-security">
        <path fill="currentColor" d="M22,24.6V12.4h-2.4V8.6C19.6,3.9,15.8,0,11,0S2.4,3.9,2.4,8.6v3.8H0v12.1c0,0.1,0,0.2,0,0.3s0,0.2,0,0.3l0.4,1.2
        C1.8,28.6,6,29.6,11,29.6c5,0,9.2-1.1,10.6-3.2l0.4-1.2c0-0.1,0-0.2,0-0.3S22,24.7,22,24.6z M12,20v3.2c0,0.6-0.4,1-1,1
        c-0.6,0-1-0.4-1-1V20c-0.7-0.4-1.2-1.1-1.2-2c0-1.2,1-2.2,2.2-2.2s2.2,1,2.2,2.2C13.3,18.9,12.8,19.6,12,20z M16.6,12.4H5.4V8.6
        C5.4,5.5,7.9,3,11,3s5.6,2.5,5.6,5.6L16.6,12.4L16.6,12.4z"/>
    </symbol>

    <symbol xmlns="http://www.w3.org/2000/svg" viewBox="0 0 576 512" id="icon-star">
        <path fill="currentColor" d="M259.3 17.8L194 150.2 47.9 171.5c-26.2 3.8-36.7 36.1-17.7 54.6l105.7 103-25 145.5c-4.5 26.3 23.2 46 46.4 33.7L288 439.6l130.7 68.7c23.2 12.2 50.9-7.4 46.4-33.7l-25-145.5 105.7-103c19-18.5 8.5-50.8-17.7-54.6L382 150.2 316.7 17.8c-11.7-23.6-45.6-23.9-57.4 0z"></path>
    </symbol>

    <symbol xmlns="http://www.w3.org/2000/svg" viewBox="0 0 58.833 58.833" id="icon-sale">
        <circle fill="#B11331" cx="29.417" cy="29.416" r="29.417"/>
        <g>
            <g>
                <path fill="#FFFFFF" d="M21.833,24.917c-3.814,0-6.917-3.103-6.917-6.917s3.103-6.917,6.917-6.917S28.75,14.186,28.75,18
                    S25.647,24.917,21.833,24.917z M21.833,14.083c-2.16,0-3.917,1.757-3.917,3.917s1.757,3.917,3.917,3.917S25.75,20.16,25.75,18
                    S23.993,14.083,21.833,14.083z"/>
            </g>
            <g>
                <path fill="#FFFFFF" d="M37.001,47.75c-3.814,0-6.918-3.103-6.918-6.917c0-3.813,3.104-6.916,6.918-6.916
                    c3.813,0,6.916,3.103,6.916,6.916C43.917,44.647,40.813,47.75,37.001,47.75z M37.001,36.917c-2.16,0-3.918,1.757-3.918,3.916
                    c0,2.16,1.758,3.917,3.918,3.917c2.158,0,3.916-1.757,3.916-3.917C40.917,38.674,39.159,36.917,37.001,36.917z"/>
            </g>
            <g>
                <path fill="#FFFFFF" d="M21.25,40.083c-0.362,0-0.725-0.13-1.013-0.394c-0.611-0.56-0.652-1.509-0.093-2.119l17.554-19.167
                    c0.561-0.611,1.512-0.651,2.119-0.093c0.611,0.56,0.654,1.508,0.094,2.119L22.356,39.596
                    C22.061,39.919,21.656,40.083,21.25,40.083z"/>
            </g>
        </g>
    </symbol>


    <symbol xmlns="http://www.w3.org/2000/svg" viewBox="0 0 50.815 58.593" id="icon-coding">
        <g>
            <polygon points="0,43.883 0.073,14.586 25.481,0 50.815,14.711 50.741,44.007 25.334,58.593 	"/>
        </g>
        <g>
            <g>
                <path fill="#FFFFFF" d="M9.751,21.255c-0.276,0-0.5-0.224-0.5-0.5v-7.5c0-0.276,0.224-0.5,0.5-0.5s0.5,0.224,0.5,0.5v7.5
                    C10.251,21.031,10.027,21.255,9.751,21.255z"/>
            </g>
            <g>
                <path fill="#FFFFFF" d="M24.688,21.255c-0.276,0-0.5-0.224-0.5-0.5v-7.5c0-0.276,0.224-0.5,0.5-0.5s0.5,0.224,0.5,0.5v7.5
                    C25.188,21.031,24.965,21.255,24.688,21.255z"/>
            </g>
            <g>
                <path fill="#FFFFFF" d="M14.437,17.456c0-1.016,0.104-1.833,0.313-2.452s0.52-1.097,0.932-1.433s0.931-0.504,1.556-0.504
                    c0.461,0,0.865,0.093,1.213,0.278s0.635,0.453,0.861,0.803s0.404,0.775,0.533,1.277s0.193,1.179,0.193,2.03
                    c0,1.008-0.104,1.821-0.311,2.44s-0.517,1.098-0.929,1.436s-0.933,0.507-1.562,0.507c-0.828,0-1.479-0.297-1.951-0.891
                    C14.72,20.233,14.437,19.069,14.437,17.456z M15.521,17.456c0,1.41,0.165,2.349,0.495,2.815s0.737,0.7,1.222,0.7
                    s0.892-0.234,1.222-0.703s0.495-1.406,0.495-2.813c0-1.414-0.165-2.354-0.495-2.818s-0.741-0.697-1.233-0.697
                    c-0.484,0-0.871,0.205-1.16,0.615C15.702,15.079,15.521,16.046,15.521,17.456z"/>
            </g>
            <g>
                <path fill="#FFFFFF" d="M28.874,17.456c0-1.016,0.104-1.833,0.313-2.452s0.52-1.097,0.932-1.433s0.931-0.504,1.556-0.504
                    c0.461,0,0.865,0.093,1.213,0.278s0.635,0.453,0.861,0.803s0.404,0.775,0.533,1.277s0.193,1.179,0.193,2.03
                    c0,1.008-0.104,1.821-0.311,2.44s-0.517,1.098-0.929,1.436s-0.933,0.507-1.562,0.507c-0.828,0-1.479-0.297-1.951-0.891
                    C29.157,20.233,28.874,19.069,28.874,17.456z M29.958,17.456c0,1.41,0.165,2.349,0.495,2.815s0.737,0.7,1.222,0.7
                    s0.892-0.234,1.222-0.703s0.495-1.406,0.495-2.813c0-1.414-0.165-2.354-0.495-2.818s-0.741-0.697-1.233-0.697
                    c-0.484,0-0.871,0.205-1.16,0.615C30.14,15.079,29.958,16.046,29.958,17.456z"/>
            </g>
            <g>
                <path fill="#FFFFFF" d="M36.562,17.456c0-1.016,0.104-1.833,0.313-2.452s0.52-1.097,0.932-1.433s0.931-0.504,1.556-0.504
                    c0.461,0,0.865,0.093,1.213,0.278s0.635,0.453,0.861,0.803s0.404,0.775,0.533,1.277s0.193,1.179,0.193,2.03
                    c0,1.008-0.104,1.821-0.311,2.44s-0.517,1.098-0.929,1.436s-0.933,0.507-1.562,0.507c-0.828,0-1.479-0.297-1.951-0.891
                    C36.845,20.233,36.562,19.069,36.562,17.456z M37.646,17.456c0,1.41,0.165,2.349,0.495,2.815s0.737,0.7,1.222,0.7
                    s0.892-0.234,1.222-0.703s0.495-1.406,0.495-2.813c0-1.414-0.165-2.354-0.495-2.818s-0.741-0.697-1.233-0.697
                    c-0.484,0-0.871,0.205-1.16,0.615C37.827,15.079,37.646,16.046,37.646,17.456z"/>
            </g>
            <g>
                <path fill="#FFFFFF" d="M9.751,45.255c-0.276,0-0.5-0.224-0.5-0.5v-7.5c0-0.276,0.224-0.5,0.5-0.5s0.5,0.224,0.5,0.5v7.5
                    C10.251,45.031,10.027,45.255,9.751,45.255z"/>
            </g>
            <g>
                <path fill="#FFFFFF" d="M24.688,45.255c-0.276,0-0.5-0.224-0.5-0.5v-7.5c0-0.276,0.224-0.5,0.5-0.5s0.5,0.224,0.5,0.5v7.5
                    C25.188,45.031,24.965,45.255,24.688,45.255z"/>
            </g>
            <g>
                <path fill="#FFFFFF" d="M14.437,41.456c0-1.016,0.104-1.833,0.313-2.452s0.52-1.097,0.932-1.433s0.931-0.504,1.556-0.504
                    c0.461,0,0.865,0.093,1.213,0.278s0.635,0.453,0.861,0.803s0.404,0.775,0.533,1.277s0.193,1.179,0.193,2.03
                    c0,1.008-0.104,1.821-0.311,2.44s-0.517,1.098-0.929,1.436s-0.933,0.507-1.562,0.507c-0.828,0-1.479-0.297-1.951-0.891
                    C14.72,44.233,14.437,43.069,14.437,41.456z M15.521,41.456c0,1.41,0.165,2.349,0.495,2.815s0.737,0.7,1.222,0.7
                    s0.892-0.234,1.222-0.703s0.495-1.406,0.495-2.813c0-1.414-0.165-2.354-0.495-2.818s-0.741-0.697-1.233-0.697
                    c-0.484,0-0.871,0.205-1.16,0.615C15.702,39.079,15.521,40.046,15.521,41.456z"/>
            </g>
            <g>
                <path fill="#FFFFFF" d="M28.874,41.456c0-1.016,0.104-1.833,0.313-2.452s0.52-1.097,0.932-1.433s0.931-0.504,1.556-0.504
                    c0.461,0,0.865,0.093,1.213,0.278s0.635,0.453,0.861,0.803s0.404,0.775,0.533,1.277s0.193,1.179,0.193,2.03
                    c0,1.008-0.104,1.821-0.311,2.44s-0.517,1.098-0.929,1.436s-0.933,0.507-1.562,0.507c-0.828,0-1.479-0.297-1.951-0.891
                    C29.157,44.233,28.874,43.069,28.874,41.456z M29.958,41.456c0,1.41,0.165,2.349,0.495,2.815s0.737,0.7,1.222,0.7
                    s0.892-0.234,1.222-0.703s0.495-1.406,0.495-2.813c0-1.414-0.165-2.354-0.495-2.818s-0.741-0.697-1.233-0.697
                    c-0.484,0-0.871,0.205-1.16,0.615C30.14,39.079,29.958,40.046,29.958,41.456z"/>
            </g>
            <g>
                <path fill="#FFFFFF" d="M36.562,41.456c0-1.016,0.104-1.833,0.313-2.452s0.52-1.097,0.932-1.433s0.931-0.504,1.556-0.504
                    c0.461,0,0.865,0.093,1.213,0.278s0.635,0.453,0.861,0.803s0.404,0.775,0.533,1.277s0.193,1.179,0.193,2.03
                    c0,1.008-0.104,1.821-0.311,2.44s-0.517,1.098-0.929,1.436s-0.933,0.507-1.562,0.507c-0.828,0-1.479-0.297-1.951-0.891
                    C36.845,44.233,36.562,43.069,36.562,41.456z M37.646,41.456c0,1.41,0.165,2.349,0.495,2.815s0.737,0.7,1.222,0.7
                    s0.892-0.234,1.222-0.703s0.495-1.406,0.495-2.813c0-1.414-0.165-2.354-0.495-2.818s-0.741-0.697-1.233-0.697
                    c-0.484,0-0.871,0.205-1.16,0.615C37.827,39.079,37.646,40.046,37.646,41.456z"/>
            </g>
            <g>
                <path fill="#FFFFFF" d="M41.063,33.255c-0.276,0-0.5-0.224-0.5-0.5v-7.5c0-0.276,0.224-0.5,0.5-0.5s0.5,0.224,0.5,0.5v7.5
                    C41.563,33.031,41.34,33.255,41.063,33.255z"/>
            </g>
            <g>
                <path fill="#FFFFFF" d="M26.126,33.255c-0.276,0-0.5-0.224-0.5-0.5v-7.5c0-0.276,0.224-0.5,0.5-0.5s0.5,0.224,0.5,0.5v7.5
                    C26.626,33.031,26.402,33.255,26.126,33.255z"/>
            </g>
            <g>
                <path fill="#FFFFFF" d="M35.528,32.948c-0.473,0.594-1.123,0.891-1.951,0.891c-0.629,0-1.149-0.169-1.562-0.507
                    s-0.722-0.816-0.929-1.436s-0.311-1.433-0.311-2.44c0-0.852,0.064-1.528,0.193-2.03s0.307-0.928,0.533-1.277
                    s0.514-0.617,0.861-0.803s0.752-0.278,1.213-0.278c0.625,0,1.144,0.168,1.556,0.504s0.723,0.813,0.932,1.433
                    s0.313,1.437,0.313,2.452C36.378,31.069,36.095,32.233,35.528,32.948z M34.749,26.556c-0.289-0.41-0.676-0.615-1.16-0.615
                    c-0.492,0-0.903,0.232-1.233,0.697s-0.495,1.404-0.495,2.818c0,1.406,0.165,2.344,0.495,2.813s0.737,0.703,1.222,0.703
                    s0.892-0.233,1.222-0.7s0.495-1.405,0.495-2.815S35.112,27.079,34.749,26.556z"/>
            </g>
            <g>
                <path fill="#FFFFFF" d="M21.091,32.948c-0.473,0.594-1.123,0.891-1.951,0.891c-0.629,0-1.149-0.169-1.562-0.507
                    s-0.722-0.816-0.929-1.436s-0.311-1.433-0.311-2.44c0-0.852,0.064-1.528,0.193-2.03s0.307-0.928,0.533-1.277
                    s0.514-0.617,0.861-0.803s0.752-0.278,1.213-0.278c0.625,0,1.144,0.168,1.556,0.504s0.723,0.813,0.932,1.433
                    s0.313,1.437,0.313,2.452C21.94,31.069,21.657,32.233,21.091,32.948z M20.312,26.556c-0.289-0.41-0.676-0.615-1.16-0.615
                    c-0.492,0-0.903,0.232-1.233,0.697s-0.495,1.404-0.495,2.818c0,1.406,0.165,2.344,0.495,2.813s0.737,0.703,1.222,0.703
                    s0.892-0.233,1.222-0.7s0.495-1.405,0.495-2.815S20.675,27.079,20.312,26.556z"/>
            </g>
            <g>
                <path fill="#FFFFFF" d="M13.403,32.948c-0.473,0.594-1.123,0.891-1.951,0.891c-0.629,0-1.149-0.169-1.562-0.507
                    s-0.722-0.816-0.929-1.436s-0.311-1.433-0.311-2.44c0-0.852,0.064-1.528,0.193-2.03s0.307-0.928,0.533-1.277
                    s0.514-0.617,0.861-0.803s0.752-0.278,1.213-0.278c0.625,0,1.144,0.168,1.556,0.504s0.723,0.813,0.932,1.433
                    s0.313,1.437,0.313,2.452C14.253,31.069,13.97,32.233,13.403,32.948z M12.624,26.556c-0.289-0.41-0.676-0.615-1.16-0.615
                    c-0.492,0-0.903,0.232-1.233,0.697s-0.495,1.404-0.495,2.818c0,1.406,0.165,2.344,0.495,2.813s0.737,0.703,1.222,0.703
                    s0.892-0.233,1.222-0.7s0.495-1.405,0.495-2.815S12.987,27.079,12.624,26.556z"/>
            </g>
        </g>
    </symbol>

    <symbol xmlns="http://www.w3.org/2000/svg" viewBox="0 0 65.836 60.07" id="icon-anti-fake">
        <path d="M12.25,60.07c-10.914,0-15.378-7.732-9.922-17.185L22.997,7.088c5.456-9.451,14.386-9.451,19.842,0l20.669,35.797 c5.456,9.452,0.992,17.185-9.922,17.185H12.25z"/>
        <g>
            <circle fill="#FFFFFF" cx="32.918" cy="33.32" r="3.083"/>
            <polygon fill="#FFFFFF" points="31.605,28.039 29.334,13.904 36.502,13.904 34.272,28.039 	"/>
        </g>
        <g>
            <path fill="#FFFFFF" d="M12.742,41.696c1.016,0,1.258-0.467,1.258-0.958c0-0.575-0.367-1-1.258-1h-0.051
                c-0.633,0-1.299,0.275-1.707,0.75l-0.426-0.392c0.492-0.6,1.275-0.967,2.107-0.967h0.059c1.441,0.009,1.891,0.825,1.891,1.533
                c0,0.616-0.291,1.133-0.924,1.333c0.725,0.158,1.125,0.7,1.125,1.434c0,0.966-0.701,1.641-2.107,1.649h-0.051
                c-1.033,0-1.85-0.483-2.275-1.217l0.426-0.392c0.342,0.616,1.041,1,1.875,1h0.041c0.9,0,1.475-0.375,1.475-1.108
                c0-0.625-0.4-1.058-1.299-1.058h-0.951v-0.608H12.742z"/>
            <path fill="#FFFFFF" d="M19.615,45.021l-0.025-0.941c-0.316,0.592-0.949,0.991-1.691,0.991c-1.184,0-2.084-0.949-2.084-2.133
                c0-1.183,0.9-2.141,2.084-2.141c0.742,0,1.375,0.408,1.691,0.991l0.025-0.934h0.432v4.166H19.615z M19.473,42.938
                c0-0.899-0.699-1.558-1.533-1.558c-0.824,0-1.523,0.658-1.523,1.558c0,0.9,0.699,1.55,1.523,1.55
                C18.773,44.487,19.473,43.838,19.473,42.938z"/>
            <path fill="#FFFFFF" d="M27.836,45.945v-0.925h-6.24v-4.166h0.609v3.591h2.133v-3.591h0.607v3.591h2.133v-3.591h0.609v3.591h0.75
                v1.5H27.836z"/>
            <path fill="#FFFFFF" d="M32.652,45.021v-3.149l-2.775,3.149H29.51v-4.166h0.609v3.149l2.773-3.149h0.359v4.166H32.652z"/>
            <path fill="#FFFFFF" d="M36.459,45.021H35.85V41.43h-1.523v-0.575h3.656v0.575h-1.523V45.021z"/>
            <path fill="#FFFFFF" d="M42.508,45.021l-0.025-0.941c-0.316,0.592-0.949,0.991-1.691,0.991c-1.184,0-2.084-0.949-2.084-2.133
                c0-1.183,0.9-2.141,2.084-2.141c0.742,0,1.375,0.408,1.691,0.991l0.025-0.934h0.432v4.166H42.508z M42.365,42.938
                c0-0.899-0.699-1.558-1.533-1.558c-0.824,0-1.523,0.658-1.523,1.558c0,0.9,0.699,1.55,1.523,1.55
                C41.666,44.487,42.365,43.838,42.365,42.938z"/>
            <path fill="#FFFFFF" d="M51.162,42.938c0,1.184-0.957,2.133-2.141,2.133s-2.133-0.949-2.133-2.133c0-1.183,0.949-2.141,2.133-2.141
                S51.162,41.755,51.162,42.938z M47.488,42.938c0,0.9,0.699,1.55,1.525,1.55c0.832,0,1.533-0.649,1.533-1.55
                c0-0.899-0.701-1.558-1.533-1.558C48.188,41.38,47.488,42.038,47.488,42.938z"/>
            <path fill="#FFFFFF" d="M54.002,45.021h-0.607V41.43h-1.525v-0.575h3.658v0.575h-1.525V45.021z"/>
            <path fill="#FFFFFF" d="M16.291,52.021V48.43h-2.566v3.591h-0.609v-4.166h3.775v4.166H16.291z"/>
            <path fill="#FFFFFF" d="M22.463,49.938c0,1.184-0.957,2.133-2.141,2.133s-2.133-0.949-2.133-2.133c0-1.183,0.949-2.141,2.133-2.141
                S22.463,48.755,22.463,49.938z M18.789,49.938c0,0.9,0.699,1.55,1.525,1.55c0.832,0,1.533-0.649,1.533-1.55
                c0-0.899-0.701-1.558-1.533-1.558C19.488,48.38,18.789,49.038,18.789,49.938z"/>
            <path fill="#FFFFFF" d="M27.371,52.945v-0.925h-3.592v0.925h-0.607v-1.5h0.566l1.648-3.591h0.367l1.65,3.591h0.566v1.5H27.371z
                M24.363,51.445h2.424l-1.217-2.657L24.363,51.445z"/>
            <path fill="#FFFFFF" d="M33.444,52.945v-0.925h-3.592v0.925h-0.607v-1.5h0.566l1.648-3.591h0.367l1.65,3.591h0.566v1.5H33.444z
                M30.437,51.445h2.424l-1.217-2.657L30.437,51.445z"/>
            <path fill="#FFFFFF" d="M38.759,49.013c0.133,0.325,0.158,0.8,0.074,1.066h-3.449c0,0.9,0.658,1.434,1.566,1.441
                c0.541,0,1.033-0.166,1.441-0.45l0.324,0.367c-0.457,0.358-1.049,0.633-1.766,0.633c-1.291-0.008-2.184-0.875-2.184-2.133
                c0-1.183,0.842-2.141,2.117-2.141C37.8,47.797,38.458,48.279,38.759,49.013z M35.409,49.671h2.875
                c0.008-0.142-0.033-0.333-0.092-0.475c-0.209-0.5-0.676-0.842-1.309-0.842C36.042,48.354,35.45,48.954,35.409,49.671z"/>
            <path fill="#FFFFFF" d="M40.274,52.021h-0.641l1.916-4.166h0.367l1.924,4.166h-0.643l-1.465-3.232L40.274,52.021z"/>
            <path fill="#FFFFFF" d="M48.688,49.938c0,1.184-0.957,2.133-2.141,2.133s-2.133-0.949-2.133-2.133c0-1.183,0.949-2.141,2.133-2.141
                S48.688,48.755,48.688,49.938z M45.015,49.938c0,0.9,0.699,1.55,1.525,1.55c0.832,0,1.533-0.649,1.533-1.55
                c0-0.899-0.701-1.558-1.533-1.558C45.714,48.38,45.015,49.038,45.015,49.938z"/>
            <path fill="#FFFFFF" d="M52.362,50.971c-0.383-0.6-0.533-0.808-1.133-0.808h-0.633v1.857h-0.609v-4.166h0.609v1.725h0.541
                c0.6,0,0.75-0.208,1.133-0.808l0.6-0.917h0.684l-0.783,1.184c-0.275,0.408-0.482,0.699-0.75,0.816
                c0.324,0.092,0.541,0.392,0.842,0.85l0.857,1.316h-0.674L52.362,50.971z"/>
        </g>
    </symbol>

    <symbol xmlns="http://www.w3.org/2000/svg" viewBox="0 0 58.25 58.25" id="icon-no-keys">
        <path d="M58.25,29.125C58.25,13.04,45.21,0,29.125,0C21.651,0,14.837,2.818,9.681,7.446l40.958,41.309
            C55.366,43.577,58.25,36.688,58.25,29.125z"/>
        <path d="M0,29.125C0,45.21,13.04,58.25,29.125,58.25c7.442,0,14.229-2.796,19.378-7.389L7.552,9.559C2.86,14.729,0,21.593,0,29.125z
            "/>
        <path fill="#FFFFFF" d="M46.901,18.333c-0.064-0.722-1.296-1.115-1.296-1.115l-4.148,0.263l-7.911,8.393
            c-0.645-0.212-1.33-0.329-2.042-0.329c-3.663,0-6.643,3.018-6.643,6.728c0,3.709,2.98,6.727,6.643,6.727
            c3.664,0,6.645-3.018,6.645-6.727c0-0.318-0.03-0.627-0.072-0.934c0.5-0.42,1.378-1.168,1.89-1.652
            c0.973-0.918,0.302-1.363,0.13-1.771c-0.372-0.89,0.32-1.432,0.928-1.309c0.44,0.089,0.438,0.37,1.146,0.455
            c0.773,0.095,1.212-0.53,1.261-0.947c0.061-0.517-0.308-0.775-0.438-1.365c-0.203-0.918,0.425-1.175,0.924-1.158
            c0.379,0.014,0.662,0.375,1.494,0.188c1.166-0.263,1.361-1.575,1.361-1.575S46.966,19.056,46.901,18.333z M31.406,35.161
            c-1.52,0-2.756-1.252-2.756-2.791s1.236-2.79,2.756-2.79c1.521,0,2.757,1.251,2.757,2.79S32.927,35.161,31.406,35.161z"/>
        <path d="M41.776,18.333c-0.064-0.722-1.296-1.115-1.296-1.115l-4.148,0.263l-7.911,8.393c-0.645-0.212-1.33-0.329-2.042-0.329
            c-3.663,0-6.643,3.018-6.643,6.728c0,3.709,2.98,6.727,6.643,6.727c3.664,0,6.645-3.018,6.645-6.727c0-0.318-0.03-0.627-0.072-0.934
            c0.5-0.42,1.378-1.168,1.89-1.652c0.973-0.918,0.302-1.363,0.13-1.771c-0.372-0.89,0.32-1.432,0.928-1.309
            c0.44,0.089,0.438,0.37,1.146,0.455c0.773,0.095,1.212-0.53,1.261-0.947c0.061-0.517-0.308-0.775-0.438-1.365
            c-0.203-0.918,0.425-1.175,0.924-1.158c0.379,0.014,0.662,0.375,1.494,0.188c1.166-0.263,1.361-1.575,1.361-1.575
            S41.841,19.056,41.776,18.333z M26.281,35.161c-1.52,0-2.756-1.252-2.756-2.791s1.236-2.79,2.756-2.79
            c1.521,0,2.757,1.251,2.757,2.79S27.802,35.161,26.281,35.161z"/>
        <path fill="#FFFFFF" d="M40.401,18.333c-0.064-0.722-1.296-1.115-1.296-1.115l-4.148,0.263l-7.911,8.393
            c-0.645-0.212-1.33-0.329-2.042-0.329c-3.663,0-6.643,3.018-6.643,6.728c0,3.709,2.98,6.727,6.643,6.727
            c3.664,0,6.645-3.018,6.645-6.727c0-0.318-0.03-0.627-0.072-0.934c0.5-0.42,1.378-1.168,1.89-1.652
            c0.973-0.918,0.302-1.363,0.13-1.771c-0.372-0.89,0.32-1.432,0.928-1.309c0.44,0.089,0.438,0.37,1.146,0.455
            c0.773,0.095,1.212-0.53,1.261-0.947c0.061-0.517-0.308-0.775-0.438-1.365c-0.203-0.918,0.425-1.175,0.924-1.158
            c0.379,0.014,0.662,0.375,1.494,0.188c1.166-0.263,1.361-1.575,1.361-1.575S40.466,19.056,40.401,18.333z M24.906,35.161
            c-1.52,0-2.756-1.252-2.756-2.791s1.236-2.79,2.756-2.79c1.521,0,2.757,1.251,2.757,2.79S26.427,35.161,24.906,35.161z"/>
        <path d="M34.984,18.333c-0.064-0.722-1.295-1.115-1.295-1.115l-4.148,0.263l-7.912,8.393c-0.645-0.212-1.33-0.329-2.042-0.329
            c-3.663,0-6.643,3.018-6.643,6.728c0,3.709,2.98,6.727,6.643,6.727c3.664,0,6.645-3.018,6.645-6.727c0-0.318-0.03-0.627-0.072-0.934
            c0.5-0.42,1.378-1.168,1.89-1.652c0.973-0.918,0.302-1.363,0.13-1.771c-0.372-0.89,0.32-1.432,0.928-1.309
            c0.44,0.089,0.438,0.37,1.145,0.455c0.773,0.095,1.213-0.53,1.262-0.947c0.061-0.517-0.309-0.775-0.438-1.365
            C30.873,23.833,31.5,23.576,32,23.593c0.379,0.014,0.662,0.375,1.494,0.188c1.166-0.263,1.361-1.575,1.361-1.575
            S35.049,19.056,34.984,18.333z M19.49,35.161c-1.52,0-2.756-1.252-2.756-2.791s1.236-2.79,2.756-2.79
            c1.521,0,2.757,1.251,2.757,2.79S21.01,35.161,19.49,35.161z"/>
        <path fill="#FFFFFF" d="M33.609,18.333c-0.064-0.722-1.295-1.115-1.295-1.115l-4.149,0.263l-7.911,8.393
            c-0.645-0.212-1.33-0.329-2.042-0.329c-3.663,0-6.643,3.018-6.643,6.728c0,3.709,2.98,6.727,6.643,6.727
            c3.664,0,6.645-3.018,6.645-6.727c0-0.318-0.03-0.627-0.072-0.934c0.5-0.42,1.378-1.168,1.89-1.652
            c0.973-0.918,0.302-1.363,0.13-1.771c-0.372-0.89,0.32-1.432,0.928-1.309c0.44,0.089,0.438,0.37,1.146,0.455
            c0.773,0.095,1.212-0.53,1.261-0.947c0.061-0.517-0.309-0.775-0.438-1.365c-0.203-0.918,0.424-1.175,0.924-1.158
            c0.379,0.014,0.662,0.375,1.494,0.188c1.166-0.263,1.361-1.575,1.361-1.575S33.674,19.056,33.609,18.333z M18.115,35.161
            c-1.52,0-2.756-1.252-2.756-2.791s1.236-2.79,2.756-2.79c1.521,0,2.757,1.251,2.757,2.79S19.635,35.161,18.115,35.161z"/>
        <path fill="#FFFFFF" d="M50.639,48.755L9.681,7.446C8.937,8.114,8.225,8.818,7.552,9.559l40.951,41.303
            C49.25,50.194,49.965,49.494,50.639,48.755z"/>
    </symbol>

    <symbol xmlns="http://www.w3.org/2000/svg" viewBox="0 0 21.92 17.17" id="icon-check">
        <polygon fill="currentColor" points="7.34 17.17 0 10.15 2.9 7.11 7.32 11.34 18.99 0 21.91 3.01 7.34 17.17"/>
    </symbol>

    <symbol xmlns="http://www.w3.org/2000/svg" viewBox="0 0 11.9 11.9" id="icon-plus">
        <polygon fill="currentColor" points="11.9,4 7.9,4 7.9,0 4,0 4,4 0,4 0,7.9 4,7.9 4,11.9 7.9,11.9 7.9,7.9 11.9,7.9 "/>
    </symbol>

    <symbol xmlns="http://www.w3.org/2000/svg" viewBox="0 0 12 3.9" id="icon-minus">
        <rect fill="currentColor" width="12" height="3.9"/>
    </symbol>

    <symbol xmlns="http://www.w3.org/2000/svg" viewBox="0 0 60.8 30.6" id="icon-delivery">
        <path fill="currentColor" d="M12.7,5.6H1c-0.6,0-1,0.4-1,1s0.4,1,1,1h11.7c0.6,0,1-0.4,1-1S13.3,5.6,12.7,5.6z"/>
        <path fill="currentColor" d="M12.7,12.2h-9c-0.6,0-1,0.4-1,1s0.4,1,1,1h9c0.6,0,1-0.4,1-1S13.3,12.2,12.7,12.2z"/>
        <path fill="currentColor" d="M12.7,18.2H5.8c-0.6,0-1,0.4-1,1s0.4,1,1,1h6.9c0.6,0,1-0.4,1-1S13.3,18.2,12.7,18.2z"/>
        <path fill="currentColor" d="M56.9,14.1h-3.1c-0.6-7.2-4.6-8-4.8-8c-0.1,0-0.1,0-0.2,0H46V3.8C46,1.7,44.2,0,42.1,0H18.9c-2.1,0-3.8,1.7-3.8,3.8v18.3
            c0,2.1,1.7,3.8,3.8,3.8h1.8c0.2,2.6,2.4,4.6,5,4.6s4.7-2,5-4.6h15c0.2,2.6,2.4,4.6,5,4.6s4.7-2,5-4.6h1.3c2.1,0,3.8-1.7,3.8-3.8V18
            C60.8,15.8,59.1,14.1,56.9,14.1z M48.7,8.1c0.4,0.1,2.7,1.1,3.1,6.1H46V8.1H48.7z M25.7,28.6c-1.7,0-3-1.4-3-3s1.4-3,3-3
            c1.5,0,2.7,1.1,3,2.5c0,0,0,0,0,0c0,0,0,0.1,0,0.1c0,0.1,0,0.3,0,0.4C28.7,27.2,27.4,28.6,25.7,28.6z M50.7,28.6c-1.7,0-3-1.4-3-3
            c0-0.1,0-0.3,0-0.4c0,0,0-0.1,0-0.1c0,0,0,0,0,0c0.3-1.4,1.5-2.5,3-2.5c1.7,0,3,1.4,3,3S52.4,28.6,50.7,28.6z M58.8,22.2
            c0,1-0.8,1.8-1.8,1.8h-1.5c-0.7-2-2.5-3.5-4.8-3.5S46.6,22,45.9,24H30.5c-0.7-2-2.5-3.5-4.8-3.5S21.6,22,20.9,24h-2
            c-1,0-1.8-0.8-1.8-1.8V3.8c0-1,0.8-1.8,1.8-1.8h23.2c1,0,1.8,0.8,1.8,1.8v11.3c0,0.6,0.4,1,1,1h12c1,0,1.8,0.8,1.8,1.8L58.8,22.2
            L58.8,22.2z"/>
    </symbol>

    <symbol xmlns="http://www.w3.org/2000/svg" viewBox="0 0 595.28 298.62" id="icon-delivery-bold">
        <path fill="currentColor" d="M124.34,54.83H9.79C3.92,54.83,0,58.74,0,64.62s3.92,9.79,9.79,9.79H124.34c5.88,0,9.79-3.92,9.79-9.79S130.22,54.83,124.34,54.83Z"/>
        <path fill="currentColor" d="M124.34,119.45H36.23c-5.87,0-9.79,3.92-9.79,9.79S30.35,139,36.23,139h88.12c5.88,0,9.79-3.92,9.79-9.79S130.22,119.45,124.34,119.45Z"/>
        <path fill="currentColor" d="M124.34,178.19H56.79c-5.87,0-9.79,3.92-9.79,9.79s3.92,9.79,9.79,9.79h67.56c5.88,0,9.79-3.92,9.79-9.79S130.22,178.19,124.34,178.19Z"/>
        <path fill="currentColor" d="M557.1,138.05H526.74c-5.87-70.49-45-78.33-47-78.33H450.38V37.21C450.38,16.64,432.75,0,412.19,0H185a37.19,37.19,0,0,0-37.21,37.21V216.38A37.19,37.19,0,0,0,185,253.58h17.62a49.07,49.07,0,0,0,49,45c25.46,0,46-19.58,49-45H447.44a49.07,49.07,0,0,0,49,45c25.46,0,46-19.58,49-45h12.73a37.19,37.19,0,0,0,37.21-37.2V176.23C595.28,154.7,578.64,138.05,557.1,138.05ZM476.81,79.3c3.92,1,26.44,10.77,30.35,59.73H450.38V79.3ZM251.62,280a29.46,29.46,0,0,1-29.37-29.37c0-15.67,13.71-29.37,29.37-29.37,14.69,0,26.43,10.77,29.37,24.48h0v4.9A29.46,29.46,0,0,1,251.62,280Zm244.77,0A29.46,29.46,0,0,1,467,250.65v-4.9h0c2.94-13.71,14.69-24.48,29.37-24.48a29.37,29.37,0,0,1,0,58.75Z"/>
    </symbol>

    <symbol xmlns="http://www.w3.org/2000/svg" viewBox="0 0 23.9 27.5" id="icon-trash">
        <path fill="currentColor" d="M22.9,3h-8.6c0.1-0.2,0.1-0.4,0.1-0.6c0-1.3-1.1-2.4-2.4-2.4S9.5,1.1,9.5,2.4c0,0.2,0,0.4,0.1,0.6H0.9C0.4,3,0,3.4,0,4
            s0.4,1,0.9,1h22c0.5,0,0.9-0.5,0.9-1C23.9,3.4,23.5,3,22.9,3z"/>
        <path fill="currentColor" d="M12,7.1L12,7.1H1.7c0,0,1.5,14.3,1.9,17.4c0.4,2.8,2.9,3,2.9,3s2.6,0,5.4,0c0,0,0,0,0.1,0c2.8,0,5.4,0,5.4,0s2.5-0.2,2.9-3
            c0.4-3.1,1.9-17.4,1.9-17.4S12,7.1,12,7.1z M8.1,24.3C8.1,24.3,8.1,24.3,8.1,24.3c-0.5,0-0.8-0.3-0.9-0.7L6,11.4
            c0-0.4,0.3-0.8,0.7-0.9c0.4,0,0.8,0.3,0.9,0.7l1.2,12.2C8.9,23.9,8.5,24.3,8.1,24.3z M12.7,23.6c0,0.4-0.4,0.8-0.8,0.8
            s-0.8-0.4-0.8-0.8V11.1c0-0.4,0.4-0.8,0.8-0.8s0.8,0.4,0.8,0.8V23.6z M16.6,23.6c0,0.4-0.4,0.7-0.8,0.7c0,0-0.1,0-0.1,0
            c-0.4,0-0.8-0.4-0.7-0.9l1.2-12.2c0-0.4,0.4-0.8,0.9-0.7c0.4,0,0.8,0.4,0.7,0.9L16.6,23.6z"/>
    </symbol>

    <symbol xmlns="http://www.w3.org/2000/svg" viewBox="0 0 23.833 25.683" id="icon-attach">
        <path fill="currentColor" d="M7.313,25.683c-1.595,0-3.409-0.63-5.226-2.446c-3.387-3.388-1.922-7.407-0.674-9.06c0.031-0.041,0.065-0.079,0.102-0.115
		C1.627,13.954,12.732,3.178,14.004,1.906c0.567-0.568,1.755-1.562,3.321-1.835c1.172-0.203,2.942-0.065,4.76,1.752
		c2.676,2.676,1.709,5.476,0.824,6.582c-0.032,0.04-0.067,0.077-0.104,0.111l-10.334,9.5c-0.925,0.879-2.914,1.608-4.55-0.029
		c-1.711-1.712-1.076-3.573-0.501-4.318c0.03-0.04,0.063-0.077,0.099-0.111l6.083-5.833c0.399-0.383,1.031-0.369,1.414,0.029
		c0.383,0.399,0.369,1.032-0.029,1.414l-6.012,5.765c-0.14,0.225-0.412,0.867,0.36,1.64c0.812,0.811,1.618,0.127,1.771-0.019
		l10.276-9.447c0.234-0.336,1.192-1.966-0.711-3.871c-0.985-0.986-1.965-1.38-3.001-1.196C16.645,2.22,15.82,2.919,15.418,3.32
		C14.172,4.566,3.971,14.466,2.971,15.436c-0.317,0.458-2.291,3.565,0.53,6.387c3.708,3.709,6.79,0.713,6.919,0.583
		c1.202-1.202,8.857-8.536,9.182-8.848c0.396-0.381,1.03-0.369,1.413,0.03c0.383,0.399,0.369,1.032-0.03,1.414
		c-0.079,0.076-7.964,7.632-9.151,8.818C10.955,24.7,9.305,25.683,7.313,25.683z"/>
    </symbol>

    <symbol xmlns="http://www.w3.org/2000/svg" viewBox="0 0 320 512" id="icon-chevron-right-solid">
        <path fill="currentColor" d="M285.476 272.971L91.132 467.314c-9.373 9.373-24.569 9.373-33.941 0l-22.667-22.667c-9.357-9.357-9.375-24.522-.04-33.901L188.505 256 34.484 101.255c-9.335-9.379-9.317-24.544.04-33.901l22.667-22.667c9.373-9.373 24.569-9.373 33.941 0L285.475 239.03c9.373 9.372 9.373 24.568.001 33.941z"></path>
    </symbol>

    <symbol xmlns="http://www.w3.org/2000/svg" viewBox="0 0 43.5 43.5" id="icon-pdf">
        <path fill="currentColor" d="M34.996,0H8.504C3.807,0,0,3.807,0,8.504v26.492C0,39.692,3.807,43.5,8.504,43.5h26.492c4.696,0,8.504-3.808,8.504-8.504
            V8.504C43.5,3.807,39.692,0,34.996,0z M40.5,34.996c0,3.035-2.469,5.504-5.504,5.504H8.504C5.469,40.5,3,38.031,3,34.996V8.504
            C3,5.469,5.469,3,8.504,3h26.492C38.031,3,40.5,5.469,40.5,8.504V34.996z"/>
        <path fill="currentColor" d="M15.106,14.694C13.401,12.992,10.866,13,8.637,13l-2.304,0c-0.829,0-1.5,0.671-1.5,1.5s0.671,1.5,1.5,1.5l2.309,0
            c1.728-0.001,3.52-0.005,4.345,0.817c0.451,0.45,0.68,1.241,0.68,2.35c0,0.739-0.209,1.274-0.659,1.683
            c-1.146,1.043-3.536,1.063-4.358,0.992c-0.426-0.043-0.841,0.096-1.155,0.38C7.179,22.505,7,22.91,7,23.333V29.5
            C7,30.329,7.671,31,8.5,31s1.5-0.672,1.5-1.5v-4.649c1.454-0.077,3.545-0.441,5.016-1.773c1.08-0.978,1.65-2.33,1.65-3.911
            C16.667,17.232,16.142,15.728,15.106,14.694z"/>
        <path fill="currentColor" d="M26.167,14.667c0-0.829-0.672-1.5-1.5-1.5s-1.5,0.671-1.5,1.5v5.474c-1.706-0.076-4.122,0.104-5.768,1.459
            c-1.133,0.933-1.732,2.281-1.732,3.9c0,1.637,0.603,2.996,1.742,3.93c1.418,1.163,3.398,1.444,4.98,1.444
            c1.309,0,2.346-0.191,2.571-0.237c0.701-0.141,1.206-0.756,1.206-1.471V14.667z M23.167,27.844
            c-1.24,0.085-2.949,0.009-3.856-0.733c-0.276-0.227-0.644-0.641-0.644-1.61c0-0.947,0.363-1.356,0.636-1.582
            c0.744-0.614,2.045-0.786,3.199-0.786c0.229,0,0.453,0.007,0.665,0.019V27.844z"/>
        <path fill="currentColor" d="M36.833,13.333h-4.667c-0.188,0-1.168,0.03-2.177,0.624c-0.806,0.474-2.156,1.65-2.156,4.209V29c0,0.828,0.672,1.5,1.5,1.5
            s1.5-0.672,1.5-1.5v-5.5h3c0.828,0,1.5-0.672,1.5-1.5c0-0.829-0.672-1.5-1.5-1.5h-3v-2.334c0-1.471,0.739-1.809,1.333-1.833h4.667
            c0.828,0,1.5-0.671,1.5-1.5S37.662,13.333,36.833,13.333z"/>
    </symbol>
</svg>
